var fontJSON=
{"glyphs":{"0":{"ha":860,"x_min":0,"x_max":0,"o":"m 567 1061 b 282 7 96 1061 -221 7 b 567 1061 753 7 1069 1061 z m 296 111 b 553 956 101 111 371 956 b 296 111 747 956 478 111 z "},"1":{"ha":494,"x_min":0,"x_max":0,"o":"m 390 1061 b 156 956 390 1061 303 913 l 133 860 b 217 860 188 844 217 860 l 21 7 l 232 7 l 474 1061 l 390 1061 z "},"2":{"ha":824,"x_min":0,"x_max":0,"o":"m 222 185 b 799 803 507 268 790 526 b 572 1061 803 939 722 1061 b 174 714 307 1061 176 810 b 319 549 168 538 319 549 b 558 956 319 549 389 956 b 619 868 583 956 621 944 b 39 188 610 579 132 188 l 21 7 b 192 26 21 7 115 26 b 404 7 268 26 326 7 b 558 15 482 7 558 15 l 646 214 b 419 168 646 214 567 168 b 222 185 367 168 349 178 z "},"3":{"ha":807,"x_min":0,"x_max":0,"o":"m 546 1061 b 374 703 190 1061 124 703 b 536 956 374 703 408 956 b 393 576 689 956 578 610 b 365 574 374 575 365 574 l 353 511 b 274 111 600 511 406 111 b 313 401 169 111 185 314 b 199 469 313 401 282 469 b 260 7 -32 469 -60 7 b 571 560 644 7 763 463 b 546 1061 842 696 879 1061 z "},"4":{"ha":840,"x_min":0,"x_max":0,"o":"m 606 1061 l 449 371 l 160 371 b 528 911 160 371 519 614 b 324 1061 535 1125 324 1061 b 340 965 324 1061 342 1024 b 33 358 328 569 33 358 l 21 296 l 431 296 l 365 7 l 579 7 l 644 296 l 740 296 l 760 371 l 663 371 l 819 1061 l 606 1061 z "},"5":{"ha":849,"x_min":0,"x_max":0,"o":"m 561 844 b 814 1061 796 844 814 1061 b 549 1008 814 1061 669 1008 b 272 1061 426 1008 272 1061 l 154 532 b 357 558 154 532 289 558 b 279 111 624 558 411 111 b 318 401 175 111 190 314 b 206 469 318 401 289 469 b 265 7 -26 469 -53 7 b 446 653 718 7 838 653 b 335 640 417 653 375 647 l 397 892 b 561 844 438 864 492 844 z "},"6":{"ha":863,"x_min":0,"x_max":0,"o":"m 486 651 b 406 640 457 651 431 646 b 826 1036 579 876 826 1036 l 790 1061 b 306 7 19 907 -190 7 b 486 651 768 7 860 651 z m 310 111 b 240 203 267 111 240 135 b 324 510 240 311 274 415 b 425 551 351 533 386 551 b 310 111 614 551 457 111 z "},"7":{"ha":756,"x_min":0,"x_max":0,"o":"m 732 953 l 735 1058 b 379 1008 735 1058 586 1011 b 156 1061 258 1007 156 1061 b 351 829 156 1061 69 829 b 656 903 450 829 571 861 b 21 7 588 581 35 506 l 265 7 b 732 953 276 368 724 651 z "},"8":{"ha":806,"x_min":0,"x_max":0,"o":"m 579 1061 b 238 739 406 1061 243 906 b 315 532 235 646 274 586 b 288 533 306 533 297 533 b 26 249 183 533 31 414 b 250 7 21 79 154 7 b 626 368 461 7 621 181 b 557 567 629 451 597 514 b 779 853 675 594 776 738 b 579 1061 785 1017 678 1061 z m 417 319 b 264 111 413 203 332 111 b 197 188 224 111 196 135 b 349 489 201 356 296 449 b 417 319 386 440 418 392 z m 626 854 b 497 640 622 736 550 671 b 418 796 453 690 417 738 b 553 956 421 883 493 956 b 626 854 590 956 629 932 z "},"9":{"ha":865,"x_min":0,"x_max":0,"o":"m 574 1061 b 394 417 113 1061 21 417 b 474 428 424 417 450 421 b 53 32 300 190 53 32 l 90 7 b 574 1061 861 160 1069 1061 z m 456 517 b 571 956 267 517 424 956 b 640 865 614 956 640 932 b 556 557 640 757 607 653 b 456 517 529 533 494 517 z "},"\u0000":{"ha":0,"x_min":0,"x_max":0,"o":""},"\u001d":{"ha":0,"x_min":0,"x_max":0,"o":""}," ":{"ha":343,"x_min":0,"x_max":0,"o":""}," ":{"ha":343,"x_min":0,"x_max":0,"o":""},"!":{"ha":682,"x_min":0,"x_max":0,"o":"m 167 225 b 54 115 106 225 56 175 b 160 7 51 56 100 7 b 272 115 219 7 269 56 b 167 225 274 175 226 225 z m 142 308 l 310 308 l 544 1061 l 326 1061 l 142 308 z "},"\"":{"ha":643,"x_min":0,"x_max":0,"o":"m 114 1176 b 53 914 114 1176 53 915 b 126 914 51 911 126 914 l 282 1176 l 114 1176 z m 251 914 b 326 914 251 911 326 914 l 482 1176 l 314 1176 b 251 914 314 1176 253 915 z "},"#":{"ha":1129,"x_min":0,"x_max":0,"o":"m 893 975 l 715 975 l 671 783 l 489 783 l 533 975 l 356 975 l 311 783 l 163 783 l 143 686 l 289 686 l 206 329 l 69 329 l 50 232 l 183 232 l 139 40 l 317 40 l 361 232 l 543 232 l 500 40 l 678 40 l 722 232 l 871 232 l 890 329 l 744 329 l 826 686 l 963 686 l 982 783 l 849 783 l 893 975 z m 567 329 l 383 329 l 467 686 l 649 686 l 567 329 z "},"$":{"ha":783,"x_min":0,"x_max":0,"o":"m 514 921 l 546 1019 l 481 1019 l 451 932 b 432 932 444 932 439 932 b 210 700 354 932 214 869 b 299 461 207 600 254 525 l 229 246 b 174 454 140 285 174 454 b 60 317 174 454 64 432 b 197 150 58 235 108 169 l 158 32 l 225 32 l 263 146 b 519 351 440 150 517 258 b 403 579 522 456 458 517 l 482 824 b 507 760 499 810 508 789 b 486 674 506 704 486 674 b 622 776 486 674 618 651 b 514 921 622 801 614 889 z m 368 321 b 293 240 367 292 346 250 l 343 396 b 368 321 358 369 368 344 z m 356 638 b 319 751 333 669 319 707 b 424 846 322 815 375 846 l 356 638 z "},"%":{"ha":1000,"x_min":0,"x_max":0,"o":"m 243 43 l 161 43 l 585 1064 l 667 1064 l 243 43 z m 329 1107 b 210 665 132 1107 0 665 b 329 1107 407 665 540 1107 z m 217 710 b 324 1063 135 710 247 1063 b 217 710 406 1063 292 710 z m 618 440 b 499 0 421 440 288 0 b 618 440 696 0 828 440 z m 504 44 b 611 397 422 44 536 397 b 504 44 693 397 581 44 z "},"&":{"ha":888,"x_min":0,"x_max":0,"o":"m 556 531 b 532 351 556 461 547 401 b 468 503 510 401 488 454 b 624 779 547 581 619 667 b 264 743 631 1051 272 988 b 299 547 263 696 276 625 b 63 228 185 458 63 357 b 278 7 63 81 175 7 b 475 50 357 7 421 24 b 496 0 488 18 496 0 l 700 0 b 614 174 700 0 663 72 b 715 500 713 317 715 500 l 556 531 z m 400 760 b 493 760 401 838 497 857 b 419 644 493 722 463 685 b 400 760 407 692 399 731 z m 272 231 b 349 385 272 286 304 336 b 422 183 372 314 399 244 b 272 231 349 131 272 153 z "},"'":{"ha":435,"x_min":0,"x_max":0,"o":"m 60 914 b 133 914 58 911 133 914 l 289 1176 l 121 1176 b 60 914 121 1176 60 915 z "},"(":{"ha":608,"x_min":0,"x_max":0,"o":"m 350 1063 b 47 399 350 1063 47 836 b 172 -51 47 89 172 -51 l 279 -51 b 228 382 279 -51 228 83 b 472 1063 228 786 472 1063 l 350 1063 z "},")":{"ha":635,"x_min":0,"x_max":0,"o":"m 249 1063 b 300 629 249 1063 300 929 b 56 -51 300 226 56 -51 l 178 -51 b 481 614 178 -51 481 175 b 356 1063 481 922 356 1063 l 249 1063 z "},"*":{"ha":549,"x_min":0,"x_max":0,"o":"m 365 1072 b 250 1036 365 1072 300 1051 l 303 1149 l 204 1161 b 190 1043 204 1161 196 1092 l 93 1107 l 51 1021 b 157 992 51 1021 110 1004 l 74 915 l 150 856 b 207 949 150 856 181 907 l 232 843 l 319 886 b 264 976 319 886 289 936 l 376 975 l 365 1072 z "},"+":{"ha":686,"x_min":0,"x_max":0,"o":"m 410 643 l 264 643 l 231 497 l 81 497 l 47 351 l 197 351 l 163 206 l 308 206 l 342 351 l 492 351 l 525 497 l 376 497 l 410 643 z "},",":{"ha":476,"x_min":0,"x_max":0,"o":"m 194 196 b 74 74 128 196 74 142 b 143 -36 74 25 101 -17 b 54 -168 108 -111 54 -168 l 171 -168 b 317 74 171 -168 317 -74 b 194 196 317 142 263 196 z "},"-":{"ha":704,"x_min":0,"x_max":0,"o":"m 65 351 l 510 351 l 543 497 l 100 497 l 65 351 z "},"­":{"ha":704,"x_min":0,"x_max":0,"o":"m 65 351 l 510 351 l 543 497 l 100 497 l 65 351 z "},".":{"ha":460,"x_min":0,"x_max":0,"o":"m 181 189 b 58 68 113 189 58 135 b 181 -54 58 0 113 -54 b 303 68 247 -54 303 0 b 181 189 303 135 247 189 z "},"/":{"ha":821,"x_min":0,"x_max":0,"o":"m 67 -51 l 219 -51 l 654 1063 l 501 1063 l 67 -51 z "},":":{"ha":468,"x_min":0,"x_max":0,"o":"m 185 694 b 64 572 118 694 64 640 b 185 450 64 506 118 450 b 307 572 253 450 307 506 b 185 694 307 640 253 694 z m 122 397 b 0 275 56 397 0 342 b 122 153 0 207 56 153 b 244 275 190 153 244 207 b 122 397 244 342 190 397 z "},";":{"ha":540,"x_min":0,"x_max":0,"o":"m 208 694 b 88 572 142 694 88 640 b 208 450 88 506 142 450 b 331 572 276 450 331 506 b 208 694 331 640 276 694 z m 140 396 b 18 274 74 396 18 340 b 89 164 18 225 47 183 b 0 32 54 89 0 32 l 117 32 b 263 274 117 32 263 126 b 140 396 263 340 208 396 z "},";":{"ha":540,"x_min":0,"x_max":0,"o":"m 208 694 b 88 572 142 694 88 640 b 208 450 88 506 142 450 b 331 572 276 450 331 506 b 208 694 331 640 276 694 z m 140 396 b 18 274 74 396 18 340 b 89 164 18 225 47 183 b 0 32 54 89 0 32 l 117 32 b 263 274 117 32 263 126 b 140 396 263 340 208 396 z "},"<":{"ha":668,"x_min":0,"x_max":0,"o":"m 0 351 l 365 151 l 399 297 l 197 408 l 444 478 l 478 624 l 35 497 l 0 351 z "},"=":{"ha":653,"x_min":0,"x_max":0,"o":"m 49 431 l 442 431 l 468 540 l 75 540 l 49 431 z m 0 244 l 393 244 l 419 354 l 26 354 l 0 244 z "},">":{"ha":678,"x_min":0,"x_max":0,"o":"m 79 478 l 281 368 l 33 297 l 0 151 l 443 278 l 478 424 l 113 624 l 79 478 z "},"?":{"ha":731,"x_min":0,"x_max":0,"o":"m 315 1061 b 25 833 150 1061 28 956 b 153 704 21 700 153 704 b 314 947 153 704 157 947 b 325 742 400 947 410 825 b 46 422 192 613 49 556 b 106 310 43 329 106 310 b 174 308 106 310 174 308 b 535 811 178 478 528 549 b 315 1061 540 957 454 1061 z m 114 225 b 1 115 54 225 4 175 b 107 7 0 56 47 7 b 219 115 168 7 218 56 b 114 225 222 175 174 225 z "},"@":{"ha":1179,"x_min":0,"x_max":0,"o":"m 660 989 b 440 28 0 989 -164 28 b 608 103 565 28 608 103 b 229 425 608 103 218 50 b 644 917 238 707 456 917 b 678 344 1022 917 806 344 b 675 493 647 344 665 451 b 735 722 686 540 711 636 l 635 722 b 626 690 632 713 629 701 b 540 736 614 717 588 736 b 308 453 424 736 313 581 b 407 315 307 376 336 315 b 564 408 465 315 521 358 b 661 279 563 339 585 279 b 660 989 1004 279 1275 989 z m 468 401 b 563 671 397 401 460 671 b 604 608 597 671 607 642 b 589 549 599 588 594 567 b 468 401 581 526 532 401 z "},"A":{"ha":1163,"x_min":0,"x_max":0,"o":"m 1047 1054 b 976 1064 1026 1060 1003 1064 b 507 615 831 1064 668 838 b 436 518 483 582 460 549 b 181 597 279 528 181 597 b 336 386 181 597 111 418 b 0 78 215 233 106 122 b 171 -68 0 78 10 -68 b 579 399 290 -68 440 158 b 819 422 647 408 728 418 l 718 0 l 935 0 l 1118 769 l 1132 828 l 1146 886 b 1047 1054 1163 960 1119 1033 z m 844 525 b 646 518 793 522 722 521 b 950 969 778 754 892 969 l 917 828 l 844 525 z "},"B":{"ha":963,"x_min":0,"x_max":0,"o":"m 507 1068 b 0 658 210 1068 0 851 b 244 432 0 392 244 432 b 189 638 244 432 189 500 b 517 975 189 788 310 975 b 763 725 686 975 763 840 b 493 440 763 500 594 450 l 597 878 l 388 878 l 246 296 l 244 296 b 232 242 244 296 240 274 l 208 142 b 456 -76 186 56 239 -76 b 839 257 649 -76 839 31 b 742 424 839 339 797 394 b 963 722 861 463 963 547 b 507 1068 963 906 790 1068 z m 468 6 b 411 93 415 6 403 56 b 458 292 428 160 458 292 l 482 393 b 658 247 558 392 658 374 b 468 6 658 101 547 6 z "},"C":{"ha":704,"x_min":0,"x_max":0,"o":"m 378 56 b 510 947 89 56 253 947 b 439 568 647 947 517 638 b 522 539 439 568 454 539 b 540 1081 781 539 888 1081 b 0 372 176 1081 0 649 b 304 -49 0 193 67 -49 b 822 414 664 -49 822 414 l 750 414 b 378 56 750 414 529 56 z "},"D":{"ha":1086,"x_min":0,"x_max":0,"o":"m 508 1068 b 0 658 210 1068 0 851 b 244 432 0 392 244 432 b 189 638 244 432 189 500 b 517 975 189 788 311 975 b 517 78 1028 975 797 78 b 436 286 415 78 421 203 l 454 360 l 576 878 l 367 878 l 153 0 l 368 0 l 375 28 b 589 -46 411 -6 478 -46 b 508 1068 1071 -46 1310 1068 z "},"E":{"ha":836,"x_min":0,"x_max":0,"o":"m 485 110 b 556 492 204 110 264 492 l 533 583 b 649 947 307 583 442 947 b 600 647 776 947 678 718 b 683 618 600 647 615 618 b 626 1068 942 618 974 1068 b 361 557 215 1068 151 621 b 396 -46 0 439 19 -46 b 908 360 690 -46 908 360 l 857 392 b 485 110 857 392 700 110 z "},"F":{"ha":913,"x_min":0,"x_max":0,"o":"m 925 1018 b 507 1068 756 1018 640 1068 b 0 658 210 1068 0 851 b 244 432 0 392 244 432 b 189 638 244 432 189 500 b 486 974 189 781 299 957 l 249 0 l 464 0 l 568 440 b 739 410 618 426 658 410 b 879 594 908 410 879 594 b 596 557 785 547 679 546 l 686 935 b 944 854 774 899 858 854 b 1150 1101 1193 854 1150 1101 b 925 1018 1150 1101 1096 1018 z "},"G":{"ha":890,"x_min":0,"x_max":0,"o":"m 604 356 b 379 56 579 253 513 56 b 538 935 90 56 281 935 b 503 513 701 935 588 589 b 594 482 503 513 519 482 b 568 1068 874 482 942 1068 b 0 372 204 1068 0 649 b 306 -49 0 193 67 -49 b 536 38 401 -49 476 -14 b 521 -42 531 13 526 -14 b 179 -404 367 -90 179 -199 b 344 -576 179 -500 239 -576 b 771 126 582 -576 667 -314 b 826 364 792 214 810 293 l 608 356 l 604 356 z m 329 -514 b 272 -450 293 -514 272 -487 b 493 -167 272 -329 386 -232 b 329 -514 453 -343 400 -514 z "},"H":{"ha":1072,"x_min":0,"x_max":0,"o":"m 824 578 l 551 578 l 588 726 b 615 844 596 764 606 803 b 426 1068 644 974 532 1068 b 0 681 167 1068 0 874 b 244 454 0 414 244 454 b 189 660 244 454 189 521 b 383 976 189 810 289 976 b 401 826 435 976 424 914 l 400 822 b 399 819 400 821 400 819 b 365 679 379 742 365 679 l 199 0 l 414 0 l 521 449 l 792 449 l 682 0 l 897 0 l 1147 1056 l 940 1056 l 824 578 z "},"I":{"ha":585,"x_min":0,"x_max":0,"o":"m 428 1068 b 0 681 167 1068 0 874 b 244 454 0 414 244 454 b 189 660 244 454 189 521 b 385 976 189 810 290 976 b 401 826 435 976 425 914 l 401 822 b 400 819 400 821 400 819 b 367 679 379 742 367 679 l 200 0 l 415 0 l 588 726 b 615 844 596 764 606 803 b 428 1068 646 974 533 1068 z "},"J":{"ha":800,"x_min":0,"x_max":0,"o":"m 669 1068 b 242 681 408 1068 242 874 b 486 454 242 414 486 454 b 431 660 486 454 431 521 b 625 976 431 810 531 976 b 640 819 678 976 665 911 b 607 681 621 742 607 681 l 547 433 b 485 188 547 433 515 304 b 272 -93 456 72 408 -93 b 193 157 90 -93 193 157 l 126 217 b 0 -37 126 217 0 132 b 244 -287 0 -204 103 -287 b 700 188 569 -287 671 65 l 804 622 l 804 624 b 857 844 819 685 838 761 b 669 1068 886 974 774 1068 z "},"K":{"ha":1018,"x_min":0,"x_max":0,"o":"m 1169 921 b 990 1057 1169 921 1138 1057 b 535 510 840 1057 650 736 b 614 844 550 574 581 699 b 426 1068 644 974 532 1068 b 0 681 167 1068 0 874 b 244 454 0 414 244 454 b 188 660 244 454 188 521 b 383 976 188 810 289 976 b 415 885 422 976 425 940 l 392 793 b 371 706 383 757 375 725 l 199 0 l 414 0 l 449 144 b 511 257 464 178 486 215 b 708 -79 546 122 613 -79 b 947 43 851 -79 947 43 b 635 436 796 43 683 301 b 1169 921 789 639 996 850 z "},"L":{"ha":1025,"x_min":0,"x_max":0,"o":"m 801 125 b 464 203 707 125 585 172 b 486 308 474 244 481 282 l 524 464 b 615 844 524 464 565 631 b 428 1068 644 974 532 1068 b 0 681 167 1068 0 874 b 244 454 0 414 244 454 b 189 660 244 454 189 521 b 383 976 189 810 289 976 b 417 897 419 976 425 946 l 271 297 b 253 229 265 278 260 254 b 35 28 125 219 35 154 b 197 -111 35 -35 85 -111 b 411 43 306 -111 369 -42 b 746 -69 510 -4 599 -69 b 964 186 1015 -69 1025 125 b 801 125 964 186 924 125 z m 135 -28 b 210 93 99 -28 126 86 b 135 -28 185 25 158 -28 z "},"M":{"ha":1303,"x_min":0,"x_max":0,"o":"m 1210 1068 l 1210 1067 b 1186 1068 1203 1068 1194 1068 b 718 367 1081 1068 868 676 b 458 1068 717 676 675 1068 l 458 1067 b 426 1068 449 1068 438 1068 b 0 681 167 1068 0 874 b 244 454 0 414 244 454 b 188 660 244 454 188 521 b 383 976 188 810 289 976 b 418 901 418 976 425 947 l 253 228 b 72 -118 178 -81 72 -118 b 210 -210 72 -118 108 -210 b 390 0 313 -210 367 -99 b 413 111 397 29 406 69 l 485 464 l 486 463 b 489 485 486 463 488 471 l 533 699 b 546 0 574 410 546 0 l 700 0 l 733 0 l 1072 728 l 890 0 l 1106 0 b 1297 939 1106 0 1222 581 b 1210 1068 1328 1085 1210 1068 z "},"N":{"ha":1157,"x_min":0,"x_max":0,"o":"m 1204 1068 b 1024 860 1101 1068 1047 958 b 947 533 1000 761 947 533 l 894 306 b 786 657 863 414 825 538 b 471 1068 713 885 657 1068 l 469 1068 b 454 1068 465 1068 460 1068 b 0 681 164 1068 0 874 b 244 454 0 414 244 454 b 188 660 244 454 188 521 b 383 976 188 810 289 976 b 418 901 418 976 425 947 l 253 228 b 72 -118 178 -81 72 -118 b 210 -210 72 -118 108 -210 b 390 0 313 -210 367 -99 b 399 39 393 11 396 24 l 547 713 b 557 754 550 726 554 740 b 775 104 642 551 731 261 b 906 3 792 46 844 6 l 979 0 l 1174 706 b 1340 976 1247 942 1340 976 b 1204 1068 1340 976 1306 1068 z "},"O":{"ha":1167,"x_min":0,"x_max":0,"o":"m 753 1068 b 335 364 210 1068 0 364 b 793 975 335 667 572 975 b 643 40 1114 975 897 40 b 571 176 597 40 571 90 b 864 726 571 565 864 726 b 718 796 864 726 844 796 b 647 -53 390 796 222 -53 b 753 1068 1129 -53 1431 1068 z "},"P":{"ha":1033,"x_min":0,"x_max":0,"o":"m 539 1068 b 0 614 242 1068 0 833 b 244 415 0 368 244 415 b 204 624 244 415 204 485 b 549 975 204 774 344 975 b 618 333 978 975 860 333 b 539 496 513 333 539 496 l 538 496 l 629 878 l 419 878 l 204 0 l 419 0 l 488 286 b 657 240 528 260 582 240 b 539 1068 1138 240 1185 1068 z "},"Q":{"ha":1189,"x_min":0,"x_max":0,"o":"m 874 33 b 754 1068 1203 297 1315 1068 b 336 364 210 1068 0 364 b 793 975 336 667 572 975 b 743 86 1071 975 947 275 b 624 108 703 99 663 108 b 579 104 608 108 593 107 b 571 176 574 124 571 149 b 864 726 571 565 864 726 b 718 796 864 726 844 796 b 647 -53 390 796 224 -53 b 722 -44 672 -53 697 -50 b 985 -187 804 -100 874 -187 b 1151 -8 1149 -187 1151 -8 b 1053 -26 1151 -8 1132 -26 b 874 33 1006 -26 943 3 z "},"R":{"ha":1043,"x_min":0,"x_max":0,"o":"m 539 1068 b 0 614 242 1068 0 833 b 244 415 0 368 244 415 b 204 624 244 415 204 485 b 549 975 204 774 344 975 b 618 333 978 975 860 333 b 538 482 532 333 533 442 l 629 878 l 419 878 l 208 0 l 425 0 l 492 285 b 497 281 493 283 494 282 b 779 -62 532 169 624 -62 b 964 63 951 -62 964 63 b 689 242 964 63 836 33 b 539 1068 1139 276 1171 1068 z "},"S":{"ha":794,"x_min":0,"x_max":0,"o":"m 539 1068 b 228 763 432 1068 228 986 b 538 211 228 492 538 381 b 286 197 538 17 286 14 b 368 386 286 313 368 386 b 249 458 368 386 329 458 b 386 -46 39 458 0 -46 b 724 267 596 -46 724 99 b 413 815 724 518 413 617 b 550 964 413 917 486 964 b 543 713 672 964 656 746 b 644 624 543 713 578 624 b 539 1068 915 624 856 1068 z "},"T":{"ha":747,"x_min":0,"x_max":0,"o":"m 1156 1115 b 892 1039 1156 1115 1083 1039 b 510 1068 767 1039 718 1068 b 0 700 211 1068 0 919 b 244 501 0 454 244 501 b 203 710 244 501 203 572 b 482 974 203 851 300 961 l 244 0 l 460 0 l 682 936 b 943 878 747 910 815 878 b 1156 1115 1249 878 1182 1115 z "},"U":{"ha":1135,"x_min":0,"x_max":0,"o":"m 1044 1063 b 1044 1069 1044 1067 1044 1069 b 504 111 1044 1069 729 111 b 486 428 426 111 456 286 b 533 644 518 571 533 644 b 596 913 554 721 578 814 b 454 1069 621 1042 558 1069 b 0 682 164 1069 0 875 b 244 456 0 415 244 456 b 188 661 244 456 188 522 b 383 978 188 811 289 978 b 413 879 424 978 425 939 l 397 814 b 367 688 382 754 371 704 l 353 633 b 276 329 339 579 304 444 b 450 -44 206 40 349 -44 b 889 429 633 -44 786 200 l 785 0 l 978 0 l 1213 1068 l 1046 1068 l 1044 1063 z "},"V":{"ha":1138,"x_min":0,"x_max":0,"o":"m 976 1138 b 504 111 997 840 718 111 b 486 428 426 111 456 286 b 535 644 518 571 535 644 l 533 644 l 586 883 l 585 885 b 590 914 588 894 589 904 b 454 1069 615 1043 560 1069 b 0 682 165 1069 0 875 b 244 456 0 415 244 456 b 189 661 244 456 189 522 b 383 978 189 811 289 978 b 414 879 424 978 426 939 l 397 814 b 367 688 382 754 371 704 l 354 633 b 276 329 339 579 304 444 b 451 -44 206 40 349 -44 b 1179 919 794 -44 1179 654 b 976 1138 1179 1131 976 1138 z "},"W":{"ha":1679,"x_min":0,"x_max":0,"o":"m 1515 1138 b 1044 111 1536 840 1258 111 b 1019 403 969 111 992 265 b 1104 782 1036 472 1065 603 b 931 1044 1118 849 1124 1044 b 915 761 931 1044 963 978 b 910 733 914 751 911 743 b 506 111 817 431 647 111 b 488 428 426 111 456 286 b 535 644 518 571 535 644 b 597 913 556 721 578 814 b 454 1069 621 1042 560 1069 b 0 682 165 1069 0 875 b 244 456 0 415 244 456 b 189 661 244 456 189 522 b 385 978 189 811 290 978 b 414 879 425 978 426 939 l 399 814 b 368 688 382 754 371 704 l 354 633 b 278 329 340 579 306 444 b 451 -44 207 40 349 -44 b 797 172 571 -44 690 46 b 990 -44 804 8 910 -44 b 1719 919 1333 -44 1719 654 b 1515 1138 1719 1131 1515 1138 z "},"X":{"ha":1072,"x_min":0,"x_max":0,"o":"m 864 88 b 728 546 790 88 764 304 b 726 550 728 547 726 549 b 1076 997 914 724 1076 872 b 939 1115 1076 1097 939 1115 b 694 768 939 1043 836 918 b 454 1069 661 964 617 1069 b 0 682 164 1069 0 875 b 244 456 0 415 244 456 b 188 661 244 456 188 522 b 383 978 188 811 289 978 b 519 590 469 978 486 800 b 464 533 501 571 483 553 b 57 14 260 329 57 136 b 221 -124 57 -132 221 -124 b 551 382 221 -36 364 189 b 818 -44 585 146 624 -44 b 1149 382 1010 -44 1149 382 l 1094 386 b 864 88 1094 386 969 88 z "},"Y":{"ha":1168,"x_min":0,"x_max":0,"o":"m 1047 1068 l 1044 1063 b 1046 1069 1046 1067 1046 1069 b 506 111 1046 1069 731 111 b 488 428 426 111 456 286 b 535 644 518 571 535 644 b 597 913 556 721 578 814 b 456 1069 621 1042 560 1069 b 0 682 165 1069 0 875 b 244 456 0 415 244 456 b 189 661 244 456 189 522 b 385 978 189 811 290 978 b 414 879 425 978 426 939 l 399 814 b 368 688 382 754 371 704 l 354 633 b 278 329 340 579 306 444 b 451 -44 207 40 349 -44 b 836 317 604 -44 736 126 b 790 125 818 243 800 168 b 756 -42 781 81 768 22 b 414 -406 601 -90 414 -199 b 579 -576 414 -500 475 -576 b 975 0 793 -576 883 -364 b 1006 126 985 40 994 82 b 1006 128 1006 126 1006 126 l 1235 1068 l 1047 1068 z m 564 -515 b 507 -450 528 -515 507 -487 b 728 -168 507 -329 621 -232 b 564 -515 689 -343 636 -515 z "},"Z":{"ha":926,"x_min":0,"x_max":0,"o":"m 711 179 b 389 151 590 179 481 167 b 842 928 517 372 842 831 b 743 1067 842 1019 743 1067 b 353 1013 743 1067 510 1013 b 108 1083 194 1013 108 1083 b 238 828 108 1083 0 828 b 553 856 356 828 463 840 b 108 79 471 672 115 192 b 108 79 108 79 108 79 b 108 78 108 78 108 78 b 108 75 108 76 108 76 b 118 29 108 56 111 42 b 206 -60 143 -29 206 -60 b 597 -6 206 -60 439 -6 b 842 -76 756 -6 842 -76 b 711 179 842 -76 950 179 z "},"[":{"ha":740,"x_min":0,"x_max":0,"o":"m 317 1063 l 232 1063 l 0 -51 l 172 -51 l 172 -50 l 304 -51 l 328 68 l 197 68 l 379 944 l 490 943 l 515 1064 l 317 1064 l 317 1063 z "},"\\":{"ha":569,"x_min":0,"x_max":0,"o":"m 0 1063 l 151 -51 l 304 -51 l 151 1063 l 0 1063 z "},"]":{"ha":714,"x_min":0,"x_max":0,"o":"m 344 1063 l 213 1064 l 188 943 l 319 943 l 138 68 l 25 68 l 0 -51 l 200 -51 l 200 -50 l 283 -50 l 515 1064 l 344 1064 l 344 1063 z "},"^":{"ha":661,"x_min":0,"x_max":0,"o":"m 472 638 l 354 1053 l 208 1053 l 0 638 l 146 638 l 261 868 l 326 638 l 472 638 z "},"_":{"ha":729,"x_min":0,"x_max":0,"o":"m 0 -51 l 511 -51 l 544 94 l 35 94 l 0 -51 z "},"`":{"ha":424,"x_min":0,"x_max":0,"o":"m 0 1176 b 132 914 0 1176 132 915 b 207 914 132 911 207 914 l 169 1176 l 0 1176 z "},"a":{"ha":869,"x_min":0,"x_max":0,"o":"m 671 139 b 653 314 617 139 638 242 b 747 722 671 397 710 567 l 532 722 b 524 690 529 711 526 701 b 386 746 497 724 454 746 b -10 243 181 746 -10 469 b 172 -1 -10 108 47 -1 b 418 160 274 -1 357 74 b 538 -10 417 61 446 -10 b 960 371 763 -10 960 371 l 921 419 b 671 139 921 419 763 139 z m 275 153 b 431 629 150 153 247 629 b 499 582 467 629 488 611 b 461 418 485 524 472 468 b 275 153 461 418 399 153 z "},"b":{"ha":749,"x_min":0,"x_max":0,"o":"m 469 746 b 294 669 404 746 346 717 l 386 1056 l 172 1056 l -81 -1 l 135 -1 l 149 54 b 279 -1 178 22 221 -1 b 469 746 696 -1 875 746 z m 250 156 b 179 182 215 156 193 168 l 222 367 b 429 629 261 503 351 629 b 250 156 589 629 426 156 z "},"c":{"ha":651,"x_min":0,"x_max":0,"o":"m 351 151 b 414 650 90 151 268 650 b 407 478 485 650 439 494 b 468 436 407 478 421 436 b 408 743 607 436 642 743 b 225 -1 17 743 -206 -1 b 746 372 521 -1 746 372 l 708 417 b 351 151 708 417 547 151 z "},"d":{"ha":868,"x_min":0,"x_max":0,"o":"m 674 149 b 656 322 619 149 640 250 b 825 1056 693 500 825 1056 l 611 1056 b 524 690 611 1056 568 878 b 386 746 497 724 454 746 b -10 243 181 746 -10 469 b 174 -1 -10 108 47 -1 b 419 163 275 -1 358 75 b 540 -1 419 67 450 -1 b 958 368 764 -1 958 368 l 919 418 b 674 149 919 418 764 149 z m 275 153 b 431 629 150 153 247 629 b 499 583 467 629 489 611 b 461 418 485 524 472 467 b 275 153 461 418 399 153 z "},"e":{"ha":647,"x_min":0,"x_max":0,"o":"m 707 417 b 354 151 707 417 542 151 b 215 318 249 151 213 226 b 285 290 231 303 253 290 b 406 743 540 290 721 743 b 228 -1 21 743 -210 -1 b 746 372 519 -1 746 372 l 707 417 z m 413 650 b 225 394 515 650 417 426 b 413 650 254 521 338 650 z "},"f":{"ha":456,"x_min":0,"x_max":0,"o":"m 568 928 b 415 1100 568 1064 489 1100 b 185 1057 318 1100 185 1057 b 29 375 179 1040 106 715 b -17 300 6 349 -11 322 b -8 208 -26 264 -22 233 b -146 -410 -81 -117 -146 -410 l 69 -410 b 183 113 69 -410 121 -172 b 210 111 193 111 201 111 b 542 372 413 111 539 365 l 504 417 b 257 210 501 410 403 210 b 208 225 236 210 221 215 b 260 454 226 300 243 378 b 568 928 338 514 568 707 z m 447 900 b 289 581 447 774 357 654 b 388 1008 331 765 367 925 b 447 900 404 1006 447 990 z "},"g":{"ha":736,"x_min":0,"x_max":0,"o":"m 528 690 b 388 746 501 724 457 746 b -7 260 183 746 -7 479 b 175 22 -7 129 50 22 b 401 153 265 22 342 81 b 394 125 399 144 397 135 b 363 -17 386 88 375 38 b -17 -403 197 -67 -17 -181 b 158 -583 -17 -503 47 -583 b 610 126 408 -583 506 -314 b 751 725 700 508 751 725 l 536 725 b 528 690 536 725 533 714 z m 278 172 b 432 633 151 172 249 633 b 503 585 471 633 492 613 b 463 418 492 539 478 482 b 278 172 449 369 386 172 z m 142 -518 b 82 -450 104 -518 82 -490 b 332 -143 82 -318 214 -212 b 142 -518 285 -329 221 -518 z "},"h":{"ha":846,"x_min":0,"x_max":0,"o":"m 640 129 b 606 176 626 129 606 135 b 708 622 606 243 708 547 b 567 746 708 674 676 746 b 564 746 565 746 565 746 b 211 310 475 746 322 515 l 388 1057 l 174 1057 l -76 1 l 138 1 b 485 565 168 126 361 408 b 394 118 460 442 394 244 b 507 -19 394 44 439 -19 b 925 358 731 -19 925 358 l 888 407 b 640 129 888 407 732 129 z "},"i":{"ha":438,"x_min":0,"x_max":0,"o":"m 515 358 l 478 407 b 231 129 478 407 322 129 b 213 303 176 129 197 231 b 310 725 231 388 274 571 l 94 725 b -3 303 60 575 17 396 b 97 -19 -39 133 -37 -19 b 515 358 321 -19 515 358 z m 238 789 b 360 910 304 789 360 843 b 238 1032 360 978 304 1032 b 115 910 171 1032 115 978 b 238 789 115 843 171 789 z "},"j":{"ha":290,"x_min":0,"x_max":0,"o":"m -46 128 b -83 -37 -56 82 -68 25 b -376 -392 -221 -103 -376 -226 b -239 -533 -376 -471 -326 -533 b 169 128 -31 -533 86 -256 b 311 725 254 511 311 725 l 96 725 b -46 128 96 725 35 486 z m -262 -471 b -299 -429 -281 -471 -299 -461 b -118 -176 -299 -337 -210 -246 b -262 -471 -161 -331 -212 -471 z m 240 1032 b 118 910 172 1032 118 978 b 240 789 118 843 172 789 b 361 910 307 789 361 843 b 240 1032 361 978 307 1032 z "},"k":{"ha":711,"x_min":0,"x_max":0,"o":"m 465 110 b 358 246 393 110 368 190 b 628 506 553 265 628 393 b 467 694 628 611 565 694 b 289 628 393 694 335 665 l 390 1054 l 176 1054 l -74 -1 l 140 -1 l 179 165 b 372 -19 206 83 261 -19 b 803 371 615 -19 803 371 l 764 419 b 465 110 764 419 579 110 z m 385 560 b 226 318 494 560 415 318 b 217 318 222 318 219 318 l 242 429 b 385 560 264 489 335 560 z "},"l":{"ha":433,"x_min":0,"x_max":0,"o":"m 226 125 b 208 300 172 125 193 226 b 388 1057 247 476 388 1057 l 174 1057 b -7 300 174 1057 35 496 b 93 -24 -43 129 -40 -24 b 511 354 318 -24 511 354 l 474 403 b 226 125 474 403 318 125 z "},"m":{"ha":1269,"x_min":0,"x_max":0,"o":"m 1067 129 b 1032 176 1053 129 1032 135 b 1135 622 1032 243 1135 547 b 993 746 1135 674 1103 746 b 992 746 993 746 992 746 b 643 318 904 746 754 521 b 708 622 678 456 708 590 b 568 746 708 674 676 746 b 565 746 567 746 565 746 b 213 308 476 746 324 515 l 311 725 l 96 725 l -76 -1 l 139 -1 b 485 563 168 124 360 406 b 350 -1 454 414 372 119 l 565 -1 b 565 -1 565 -1 565 -1 b 913 565 594 124 788 408 b 822 118 888 440 822 244 b 933 -19 822 44 867 -19 b 1353 358 1158 -19 1353 358 l 1314 407 b 1067 129 1314 407 1158 129 z "},"n":{"ha":843,"x_min":0,"x_max":0,"o":"m 639 129 b 604 176 625 129 604 135 b 707 622 604 243 707 547 b 565 746 707 674 675 746 b 563 746 565 746 564 746 b 210 310 474 746 322 515 l 308 725 l 94 725 l -78 1 l 138 1 b 485 565 167 126 360 408 b 394 118 460 442 394 244 b 506 -19 394 44 439 -19 b 925 358 731 -19 925 358 l 886 407 b 639 129 886 407 731 129 z "},"o":{"ha":685,"x_min":0,"x_max":0,"o":"m 797 489 l 778 550 b 592 331 778 550 688 386 b 415 724 653 522 611 724 b 222 1 -19 724 -168 1 b 547 226 365 1 479 101 b 797 489 686 292 797 489 z m 260 129 b 404 631 110 129 242 631 b 453 433 460 631 471 539 b 379 224 350 392 304 271 b 260 129 346 168 304 129 z "},"p":{"ha":735,"x_min":0,"x_max":0,"o":"m 661 343 b 488 746 717 539 667 746 b 293 658 410 746 346 708 b 308 724 299 683 304 706 l 93 724 b -153 -333 40 496 -153 -333 l 61 -333 b 150 43 61 -333 101 -164 b 269 0 176 17 215 0 b 618 238 432 0 551 106 b 844 488 746 313 844 488 l 825 549 b 661 343 825 549 747 408 z m 261 96 b 217 329 199 96 190 210 b 224 363 219 340 221 351 b 410 614 258 489 328 614 b 471 417 475 614 489 522 b 411 235 396 371 364 282 b 261 96 371 156 318 96 z "},"q":{"ha":738,"x_min":0,"x_max":0,"o":"m 524 692 b 386 746 496 724 453 746 b -10 243 181 746 -10 469 b 172 -1 -10 108 47 -1 b 392 126 261 -1 335 56 b 286 -332 336 -115 286 -332 l 500 -332 b 747 725 500 -332 693 494 l 531 725 b 524 692 529 715 526 704 z m 275 153 b 431 629 150 153 246 629 b 499 583 467 629 488 611 b 457 408 486 531 472 471 b 275 153 444 360 383 153 z "},"r":{"ha":667,"x_min":0,"x_max":0,"o":"m 458 129 b 440 303 406 129 425 231 b 540 725 461 400 507 583 l 389 725 l 325 725 b 183 567 325 725 256 588 b 132 769 224 676 229 769 b 83 489 -19 769 -90 500 b -39 274 40 385 -39 274 l 3 229 b 153 494 3 229 92 361 b 286 567 208 504 251 532 b 225 303 263 469 239 371 b 325 -19 189 133 192 -19 b 744 358 550 -19 744 358 l 706 407 b 458 129 706 407 550 129 z "},"s":{"ha":535,"x_min":0,"x_max":0,"o":"m 457 240 b 258 550 443 397 258 464 b 325 619 258 601 297 619 b 444 501 429 619 444 501 b 333 732 536 501 610 732 b 96 564 203 732 121 650 b 96 564 96 564 96 564 b 89 535 93 554 90 544 b -1 336 79 501 57 440 l 39 290 b 108 408 39 290 69 336 b 232 164 149 318 232 265 b 222 122 232 143 229 131 b 218 122 221 122 219 122 b 86 196 146 122 147 196 b 147 -24 -69 196 -76 -24 b 425 113 296 -24 383 42 b 636 392 554 218 636 392 l 588 429 b 457 240 544 347 500 285 z "},"t":{"ha":433,"x_min":0,"x_max":0,"o":"m 229 125 b 211 300 175 125 196 226 b 311 725 229 385 272 564 l 417 725 l 438 797 l 328 797 b 390 1057 363 942 390 1057 l 176 1057 b 113 797 176 1057 147 942 l 29 797 l 8 725 l 96 725 b -4 300 57 568 15 393 b 96 -24 -40 129 -39 -24 b 514 354 319 -24 514 354 l 476 403 b 229 125 476 403 321 125 z "},"u":{"ha":886,"x_min":0,"x_max":0,"o":"m 694 149 b 676 322 640 149 660 250 b 768 725 694 406 732 572 l 553 725 b 532 633 546 694 539 664 b 235 149 532 633 410 149 b 217 322 182 149 201 250 b 310 725 235 406 274 572 l 94 725 b 1 322 58 576 21 414 b 101 -1 -35 153 -32 -1 b 449 253 261 -1 378 136 b 561 -1 428 113 446 -1 b 979 368 785 -1 979 368 l 940 418 b 694 149 940 418 785 149 z "},"v":{"ha":746,"x_min":0,"x_max":0,"o":"m 210 126 b 211 324 167 126 194 251 b 303 726 251 510 303 726 l 88 726 b -4 324 39 517 36 518 b 154 0 -39 160 -26 0 b 739 726 497 0 739 672 l 490 726 b 210 126 488 719 342 126 z "},"w":{"ha":1171,"x_min":0,"x_max":0,"o":"m 907 726 b 626 126 903 719 757 126 b 626 324 582 126 611 251 b 665 496 639 381 653 440 b 719 726 694 622 719 726 l 504 726 b 446 483 474 597 461 549 b 215 126 399 289 289 126 b 215 324 171 126 200 251 b 308 726 256 510 308 726 l 93 726 b 0 324 43 517 42 518 b 158 0 -35 160 -22 0 b 404 119 243 0 328 49 b 569 0 422 49 471 0 b 1154 726 914 0 1154 672 l 907 726 z "},"x":{"ha":796,"x_min":0,"x_max":0,"o":"m 585 149 b 424 335 521 149 467 232 b 674 650 550 461 674 583 b 557 746 674 757 557 746 b 383 447 557 639 478 540 b 313 725 338 588 313 725 l 118 725 b -28 293 86 471 19 365 l 19 257 b 158 539 69 321 122 419 b 228 303 175 467 199 383 b 58 63 135 218 58 138 b 164 -19 58 -32 164 -19 b 278 181 164 33 211 104 b 468 -1 329 76 393 -1 b 886 368 692 -1 886 368 l 849 418 b 585 149 849 418 679 149 z "},"y":{"ha":799,"x_min":0,"x_max":0,"o":"m 564 647 b 269 171 546 581 431 171 b 251 346 217 171 236 274 b 339 725 269 425 304 579 l 124 725 b 36 346 90 583 54 432 b 136 22 0 175 3 22 b 472 258 289 22 401 146 b 442 125 463 217 451 172 b 410 -17 432 88 422 38 b 31 -403 243 -67 31 -181 b 206 -583 31 -503 94 -583 b 657 126 454 -583 553 -314 b 799 725 747 508 799 725 l 583 725 b 564 647 583 725 576 697 z m 189 -518 b 129 -450 151 -518 129 -490 b 379 -143 129 -318 261 -212 b 189 -518 332 -329 268 -518 z "},"z":{"ha":697,"x_min":0,"x_max":0,"o":"m 756 418 b 489 146 756 418 582 146 b 407 151 458 146 432 147 b 625 725 547 318 625 583 b 365 707 625 725 547 707 b 126 725 258 707 126 731 b -18 308 114 529 -14 310 l 29 272 b 169 564 29 272 135 421 b 342 546 201 557 261 546 b 413 550 367 546 390 547 b 243 196 389 381 314 267 b 131 214 208 207 174 214 b 129 -1 6 214 -68 -1 b 260 29 176 -1 219 10 b 435 -1 314 13 376 -1 b 794 368 604 -1 794 368 l 756 418 z "},"{":{"ha":642,"x_min":0,"x_max":0,"o":"m 181 865 b 136 654 153 736 146 707 b 22 563 115 556 22 563 l 1 464 b 67 321 1 464 90 456 b 26 131 51 240 36 176 b 124 -51 0 0 56 -51 b 242 -51 231 -51 242 -51 l 250 -6 b 186 68 250 -6 176 18 b 238 318 203 153 219 231 b 181 492 256 404 181 492 b 307 654 181 492 281 526 b 369 950 333 781 349 864 b 442 1011 382 1003 442 1011 l 453 1064 b 351 1063 453 1064 439 1063 b 181 865 264 1063 207 993 z "},"|":{"ha":554,"x_min":0,"x_max":0,"o":"m 0 -51 l 153 -51 l 388 1063 l 235 1063 l 0 -51 z "},"}":{"ha":638,"x_min":0,"x_max":0,"o":"m 388 692 b 426 882 401 771 417 836 b 329 1064 454 1013 397 1064 b 213 1064 222 1064 213 1064 l 203 1018 b 267 943 203 1018 278 994 b 217 694 250 860 235 782 b 272 521 197 607 272 521 b 146 358 272 521 172 486 b 83 63 119 231 104 149 b 11 1 71 10 11 1 l 0 -51 b 103 -50 0 -51 14 -50 b 274 147 190 -50 246 18 b 318 358 300 276 307 306 b 431 450 338 456 431 450 l 451 549 b 388 692 451 549 363 556 z "},"~":{"ha":664,"x_min":0,"x_max":0,"o":"m 167 604 b 31 539 96 604 31 539 l 0 400 b 136 467 0 400 65 467 b 299 400 206 467 222 400 b 435 454 375 400 435 454 l 467 593 b 329 539 467 593 406 539 b 167 604 253 539 238 604 z "},"¡":{"ha":685,"x_min":0,"x_max":0,"o":"m 385 1033 b 272 924 324 1033 274 985 b 378 815 271 864 318 815 b 490 924 438 815 489 864 b 385 1033 492 985 444 1033 z m 0 -21 l 218 -21 l 401 732 l 235 732 l 0 -21 z "},"¢":{"ha":808,"x_min":0,"x_max":0,"o":"m 457 600 b 518 557 457 600 471 557 b 457 863 651 557 690 839 l 488 1007 l 413 1007 l 381 861 b 224 121 22 808 -165 140 l 197 -6 l 272 -6 l 300 125 b 597 292 417 144 518 217 l 561 353 b 368 274 506 308 439 274 b 333 278 356 274 343 275 l 438 771 b 457 600 539 765 489 615 z m 353 729 l 267 318 b 353 729 192 413 263 636 z "},"£":{"ha":800,"x_min":0,"x_max":0,"o":"m 142 708 b 172 508 139 632 175 611 b 160 456 172 492 168 474 l 65 456 l 53 410 l 138 410 b 0 243 86 325 0 243 l 21 169 b 146 181 21 169 89 181 b 376 132 279 181 286 132 b 515 299 503 132 515 299 b 399 256 515 299 482 256 b 186 307 317 256 256 307 b 150 304 175 307 163 306 b 278 410 194 328 244 363 l 382 410 l 394 456 l 300 456 b 313 515 307 474 313 493 b 288 743 314 574 285 642 b 503 793 292 910 507 940 b 400 651 500 692 400 651 b 482 604 400 651 424 604 b 614 779 544 604 610 668 b 142 708 621 1043 150 1001 z "},"¤":{"ha":751,"x_min":0,"x_max":0,"o":"m 481 531 l 561 607 l 481 643 l 410 576 b 335 586 388 583 363 586 b 206 565 285 586 243 579 l 164 625 l 69 590 l 121 515 b 85 267 38 444 22 333 l 0 185 l 81 149 l 157 222 b 246 208 182 213 213 208 b 326 218 275 208 303 213 l 375 149 l 469 183 l 417 260 b 481 531 515 331 543 458 z m 315 503 b 254 292 444 503 388 292 b 315 503 117 292 164 503 z "},"¥":{"ha":765,"x_min":0,"x_max":0,"o":"m 222 504 b 229 893 124 504 229 893 l 79 893 b 140 410 57 801 0 468 b 138 400 139 407 139 403 l 39 400 l 26 356 l 126 356 b 114 307 122 340 118 324 l 14 307 l 1 263 l 101 263 b 58 93 83 193 65 126 l 176 93 b 219 263 183 124 201 190 l 331 263 l 346 307 l 231 307 b 243 356 236 324 240 340 l 356 356 l 371 400 l 256 400 b 257 411 256 404 257 407 b 592 893 493 482 592 893 l 428 893 b 222 504 428 893 363 504 z "},"¦":{"ha":590,"x_min":0,"x_max":0,"o":"m 138 650 l 289 650 l 388 1118 l 235 1118 l 138 650 z m 0 4 l 153 4 l 258 500 l 106 500 l 0 4 z "},"§":{"ha":886,"x_min":0,"x_max":0,"o":"m 533 1119 b 306 894 454 1119 306 1058 b 322 804 306 861 313 831 b 167 593 249 778 167 714 b 394 189 167 394 394 313 b 211 178 394 46 211 44 b 271 317 211 263 271 317 b 183 369 271 317 242 369 b 283 0 29 369 0 0 b 531 229 438 0 531 106 b 513 317 531 261 524 290 b 669 532 611 349 669 435 b 440 935 669 715 440 789 b 542 1043 440 1008 494 1043 b 536 858 632 1043 619 883 b 611 793 536 858 563 793 b 533 1119 810 793 767 1119 z m 532 492 b 468 388 532 435 504 400 b 303 632 401 472 303 536 b 363 732 303 685 329 717 b 532 492 429 639 532 574 z "},"¨":{"ha":769,"x_min":0,"x_max":0,"o":"m 122 1118 b 0 996 54 1118 0 1064 b 122 875 0 929 54 875 b 244 996 189 875 244 929 b 122 1118 244 1064 189 1118 z m 415 1118 b 294 996 349 1118 294 1064 b 415 875 294 929 349 875 b 538 996 483 875 538 929 b 415 1118 538 1064 483 1118 z "},"©":{"ha":982,"x_min":0,"x_max":0,"o":"m 457 936 b 29 560 250 936 58 768 b 351 185 0 353 144 185 b 781 560 560 185 751 353 b 457 936 810 768 665 936 z m 724 560 b 360 242 699 385 536 242 b 86 560 185 242 61 385 b 449 879 111 736 274 879 b 724 560 625 879 747 736 z m 392 368 b 446 740 271 368 339 740 b 417 582 503 740 449 611 b 451 569 417 582 422 569 b 458 796 560 569 604 796 b 233 500 307 796 233 615 b 360 324 233 425 261 324 b 576 517 510 324 576 517 l 546 517 b 392 368 546 517 454 368 z "},"ª":{"ha":522,"x_min":0,"x_max":0,"o":"m 292 860 b 283 935 268 860 276 904 b 324 1110 292 971 308 1043 l 232 1110 b 228 1096 231 1106 229 1100 b 169 1119 217 1110 199 1119 b 0 906 82 1119 0 1001 b 78 800 0 847 25 800 b 183 869 122 800 157 832 b 235 796 182 826 196 796 b 333 849 271 796 304 819 b 321 876 329 857 325 867 b 292 860 311 867 300 860 z m 122 867 b 189 1069 68 867 110 1069 b 218 1050 204 1069 213 1063 b 201 979 211 1025 206 1001 b 122 867 201 979 175 867 z "},"«":{"ha":635,"x_min":0,"x_max":0,"o":"m 171 513 l 336 279 l 364 397 l 240 571 l 433 728 l 460 846 l 197 631 l 171 513 z m 261 728 l 289 846 l 26 631 l 0 513 l 165 279 l 193 397 l 69 571 l 261 728 z "},"¬":{"ha":854,"x_min":0,"x_max":0,"o":"m 651 769 l 522 769 l 33 769 l 0 625 l 488 625 l 435 404 l 569 404 l 656 769 l 651 769 z "},"®":{"ha":992,"x_min":0,"x_max":0,"o":"m 458 936 b 29 560 250 936 58 768 b 353 185 0 353 144 185 b 781 560 560 185 751 353 b 458 936 810 768 665 936 z m 724 560 b 361 242 699 385 536 242 b 88 560 185 242 63 385 b 450 879 111 736 274 879 b 724 560 626 879 749 736 z m 417 799 b 193 610 293 799 193 701 b 294 528 193 507 294 528 b 278 614 294 528 278 557 b 421 760 278 676 336 760 b 450 493 600 760 551 493 b 417 554 414 493 415 539 l 454 719 l 368 719 l 279 354 l 369 354 l 397 472 b 400 471 399 472 399 472 b 517 328 414 425 453 328 b 594 381 589 328 594 381 b 479 454 594 381 540 368 b 417 799 667 469 681 799 z "},"¯":{"ha":868,"x_min":0,"x_max":0,"o":"m 7 874 l 624 874 l 658 1019 l 40 1019 l 7 874 z "},"°":{"ha":497,"x_min":0,"x_max":0,"o":"m 168 1121 b 10 982 92 1121 21 1058 b 129 843 0 906 53 843 b 288 982 206 843 276 906 b 168 1121 297 1058 244 1121 z m 225 982 b 138 903 219 938 181 903 b 72 982 96 903 65 938 b 160 1063 78 1026 117 1063 b 225 982 201 1063 231 1026 z "},"±":{"ha":778,"x_min":0,"x_max":0,"o":"m 408 672 l 442 818 l 296 818 l 263 672 l 114 672 l 81 528 l 229 528 l 196 382 l 340 382 l 375 528 l 524 528 l 557 672 l 408 672 z m 0 196 l 444 196 l 478 342 l 33 342 l 0 196 z "},"²":{"ha":543,"x_min":0,"x_max":0,"o":"m 231 1064 b 64 918 119 1064 64 958 b 124 850 61 846 124 850 b 225 1019 124 850 153 1019 b 250 983 235 1019 250 1015 b 7 699 246 863 46 699 l 0 624 b 71 631 0 624 39 631 b 160 624 103 631 128 624 b 224 626 192 624 224 626 l 261 710 b 167 690 261 710 228 690 b 83 697 144 690 136 694 b 325 956 203 732 321 840 b 231 1064 326 1013 293 1064 z "},"³":{"ha":574,"x_min":0,"x_max":0,"o":"m 253 1064 b 181 914 104 1064 76 914 b 249 1019 181 914 194 1019 b 189 861 313 1019 265 875 b 178 860 181 861 178 860 l 172 833 b 139 667 275 833 194 667 b 156 789 94 667 101 751 b 108 817 156 789 143 817 b 133 624 11 817 0 624 b 264 854 294 624 343 814 b 253 1064 376 911 392 1064 z "},"´":{"ha":481,"x_min":0,"x_max":0,"o":"m 0 856 b 75 856 0 853 75 856 l 253 1119 l 83 1119 b 0 856 83 1119 1 858 z "},"µ":{"ha":1218,"x_min":0,"x_max":0,"o":"m 807 151 b 789 326 753 151 774 253 b 881 729 807 408 846 575 l 665 729 b 644 636 658 699 651 667 b 347 151 644 636 522 151 b 329 326 294 151 314 253 b 422 729 347 408 386 575 l 207 729 b 122 365 176 599 143 460 l 0 -171 l 135 -171 l 175 7 b 214 3 188 4 200 3 b 561 256 375 3 490 139 b 674 3 540 115 558 3 b 1092 371 897 3 1092 371 l 1053 421 b 807 151 1053 421 897 151 z "},"¶":{"ha":890,"x_min":0,"x_max":0,"o":"m 513 936 l 446 936 l 363 936 b 339 938 356 938 347 938 b 33 693 203 938 67 828 b 218 447 0 557 82 447 b 221 447 218 447 219 447 l 118 3 l 229 3 l 421 829 l 488 829 l 297 3 l 408 3 l 600 829 l 651 829 l 674 936 l 625 936 l 513 936 z "},"·":{"ha":453,"x_min":0,"x_max":0,"o":"m 122 604 b 0 482 56 604 0 550 b 122 361 0 415 56 361 b 244 482 190 361 244 415 b 122 604 244 550 190 604 z "},"∙":{"ha":453,"x_min":0,"x_max":0,"o":"m 122 604 b 0 482 56 604 0 550 b 122 361 0 415 56 361 b 244 482 190 361 244 415 b 122 604 244 550 190 604 z "},"¸":{"ha":482,"x_min":0,"x_max":0,"o":"m 201 -62 l 228 39 l 156 32 b 135 -61 156 32 140 -39 b 24 -111 94 -67 57 -87 b 28 -117 25 -112 26 -115 b 44 -149 35 -126 39 -137 b 100 -135 63 -140 81 -135 b 58 -303 224 -135 149 -303 b 24 -185 -15 -303 24 -185 b -76 -276 24 -185 -76 -181 b 53 -378 -76 -328 -36 -378 b 201 -62 236 -378 364 -100 z "},"¹":{"ha":397,"x_min":0,"x_max":0,"o":"m 57 1019 l 47 981 b 82 979 69 974 82 979 l 0 624 l 89 624 l 189 1064 l 154 1064 b 57 1019 154 1064 118 1001 z "},"º":{"ha":617,"x_min":0,"x_max":0,"o":"m 329 1064 b 210 624 132 1064 0 624 b 329 1064 407 624 539 1064 z m 217 667 b 324 1019 135 667 247 1019 b 217 667 406 1019 292 667 z "},"»":{"ha":638,"x_min":0,"x_max":0,"o":"m 290 564 l 124 797 l 97 679 l 219 506 l 28 349 l 0 231 l 263 446 l 290 564 z m 268 679 l 390 506 l 199 349 l 171 231 l 433 446 l 461 564 l 294 797 l 268 679 z "},"¼":{"ha":769,"x_min":0,"x_max":0,"o":"m 425 1021 l 0 0 l 82 0 l 507 1021 l 425 1021 z m 115 624 l 217 1064 l 181 1064 b 83 1019 181 1064 144 1001 l 74 981 b 108 979 96 974 108 979 l 26 624 l 115 624 z m 436 396 l 369 107 l 250 107 b 403 333 250 107 400 210 b 318 396 406 424 318 396 b 325 356 318 396 325 381 b 197 103 319 192 197 103 l 192 76 l 363 76 l 335 -44 l 425 -44 l 453 76 l 492 76 l 500 107 l 460 107 l 525 396 l 436 396 z "},"½":{"ha":758,"x_min":0,"x_max":0,"o":"m 425 1021 l 0 0 l 82 0 l 507 1021 l 425 1021 z m 115 624 l 217 1064 l 182 1064 b 83 1019 182 1064 146 1001 l 74 981 b 110 979 97 974 110 979 l 28 624 l 115 624 z m 465 399 b 299 253 354 399 300 293 b 360 183 297 179 360 183 b 460 354 360 183 389 354 b 485 318 471 354 486 349 b 243 33 482 196 282 33 l 235 -43 b 307 -35 235 -43 275 -35 b 396 -43 339 -35 363 -43 b 460 -39 428 -43 460 -39 l 497 44 b 401 25 497 44 464 25 b 319 32 379 25 372 29 b 560 290 438 67 557 175 b 465 399 561 347 529 399 z "},"¾":{"ha":839,"x_min":0,"x_max":0,"o":"m 264 854 b 253 1064 376 911 392 1064 b 181 914 104 1064 76 914 b 249 1019 181 914 194 1019 b 189 861 313 1019 265 875 b 178 860 181 861 178 860 l 172 833 b 139 667 275 833 194 667 b 156 789 94 667 101 751 b 108 817 156 789 143 817 b 133 624 11 817 0 624 b 264 854 294 624 343 814 z m 515 1021 l 92 0 l 174 0 l 597 1021 l 515 1021 z m 619 396 l 531 396 l 464 107 l 344 107 b 497 333 344 107 494 210 b 413 396 500 424 413 396 b 419 356 413 396 419 381 b 292 103 414 192 292 103 l 286 76 l 457 76 l 429 -44 l 519 -44 l 547 76 l 586 76 l 594 107 l 554 107 l 619 396 z "},"¿":{"ha":806,"x_min":0,"x_max":0,"o":"m 225 7 b 515 235 390 7 511 111 b 388 364 519 367 388 364 b 225 119 388 364 383 119 b 215 325 139 119 131 243 b 494 644 349 454 490 511 b 435 757 497 738 435 757 b 367 760 433 757 367 760 b 4 257 363 589 13 519 b 225 7 0 110 86 7 z m 426 843 b 539 951 486 843 536 892 b 432 1061 540 1013 493 1061 b 321 951 372 1061 322 1013 b 426 843 318 892 365 843 z "},"À":{"ha":1163,"x_min":0,"x_max":0,"o":"m 1047 1054 b 976 1064 1026 1060 1003 1064 b 507 615 831 1064 668 838 b 436 518 483 582 460 549 b 181 597 279 528 181 597 b 336 386 181 597 111 418 b 0 78 215 233 106 122 b 171 -68 0 78 10 -68 b 579 399 290 -68 440 158 b 819 422 647 408 728 418 l 718 0 l 935 0 l 1118 769 l 1132 828 l 1146 886 b 1047 1054 1163 960 1119 1033 z m 844 525 b 646 518 793 522 722 521 b 950 969 778 754 892 969 l 917 828 l 844 525 z m 846 1313 b 1001 1106 846 1313 1001 1108 b 1076 1106 1001 1104 1076 1106 l 1014 1313 l 846 1313 z "},"Á":{"ha":1163,"x_min":0,"x_max":0,"o":"m 1047 1054 b 976 1064 1026 1060 1003 1064 b 507 615 831 1064 668 838 b 436 518 483 582 460 549 b 181 597 279 528 181 597 b 336 386 181 597 111 418 b 0 78 215 233 106 122 b 171 -68 0 78 10 -68 b 579 399 290 -68 440 158 b 819 422 647 408 728 418 l 718 0 l 935 0 l 1118 769 l 1132 828 l 1146 886 b 1047 1054 1163 960 1119 1033 z m 844 525 b 646 518 793 522 722 521 b 950 969 778 754 892 969 l 917 828 l 844 525 z m 985 1106 b 1060 1106 985 1106 1060 1104 b 1215 1313 1060 1108 1215 1313 l 1047 1313 l 985 1106 z "},"Â":{"ha":1163,"x_min":0,"x_max":0,"o":"m 1047 1054 b 976 1064 1026 1060 1003 1064 b 507 615 831 1064 668 838 b 436 518 483 582 460 549 b 181 597 279 528 181 597 b 336 386 181 597 111 418 b 0 78 215 233 106 122 b 171 -68 0 78 10 -68 b 579 399 290 -68 440 158 b 819 422 647 408 728 418 l 718 0 l 935 0 l 1118 769 l 1132 828 l 1146 886 b 1047 1054 1163 960 1119 1033 z m 844 525 b 646 518 793 522 722 521 b 950 969 778 754 892 969 l 917 828 l 844 525 z m 979 1311 l 822 1104 l 950 1104 l 1022 1208 l 1064 1104 l 1179 1104 l 1094 1311 l 979 1311 z "},"Ã":{"ha":1163,"x_min":0,"x_max":0,"o":"m 1047 1054 b 976 1064 1026 1060 1003 1064 b 507 615 831 1064 668 838 b 436 518 483 582 460 549 b 181 597 279 528 181 597 b 336 386 181 597 111 418 b 0 78 215 233 106 122 b 171 -68 0 78 10 -68 b 579 399 290 -68 440 158 b 819 422 647 408 728 418 l 718 0 l 935 0 l 1118 769 l 1132 828 l 1146 886 b 1047 1054 1163 960 1119 1033 z m 844 525 b 646 518 793 522 722 521 b 950 969 778 754 892 969 l 917 828 l 844 525 z m 1176 1232 b 1050 1293 1118 1232 1106 1293 b 946 1232 996 1293 946 1232 l 933 1115 b 1039 1175 933 1115 985 1175 b 1164 1115 1093 1175 1106 1115 b 1269 1165 1224 1115 1269 1165 l 1282 1282 b 1176 1232 1282 1282 1235 1232 z "},"Ä":{"ha":1163,"x_min":0,"x_max":0,"o":"m 1047 1054 b 976 1064 1026 1060 1003 1064 b 507 615 831 1064 668 838 b 436 518 483 582 460 549 b 181 597 279 528 181 597 b 336 386 181 597 111 418 b 0 78 215 233 106 122 b 171 -68 0 78 10 -68 b 579 399 290 -68 440 158 b 819 422 647 408 728 418 l 718 0 l 935 0 l 1118 769 l 1132 828 l 1146 886 b 1047 1054 1163 960 1119 1033 z m 844 525 b 646 518 793 522 722 521 b 950 969 778 754 892 969 l 917 828 l 844 525 z m 947 1324 b 843 1219 890 1324 843 1276 b 947 1115 843 1161 890 1115 b 1051 1219 1006 1115 1051 1161 b 947 1324 1051 1276 1006 1324 z m 1186 1324 b 1082 1219 1129 1324 1082 1276 b 1186 1115 1082 1161 1129 1115 b 1290 1219 1243 1115 1290 1161 b 1186 1324 1290 1276 1243 1324 z "},"Å":{"ha":1163,"x_min":0,"x_max":0,"o":"m 1047 1054 b 976 1064 1026 1060 1003 1064 b 507 615 831 1064 668 838 b 436 518 483 582 460 549 b 181 597 279 528 181 597 b 336 386 181 597 111 418 b 0 78 215 233 106 122 b 171 -68 0 78 10 -68 b 579 399 290 -68 440 158 b 819 422 647 408 728 418 l 718 0 l 935 0 l 1118 769 l 1132 828 l 1146 886 b 1047 1054 1163 960 1119 1033 z m 844 525 b 646 518 793 522 722 521 b 950 969 778 754 892 969 l 917 828 l 844 525 z m 1083 1347 b 939 1219 1014 1347 949 1290 b 1049 1092 929 1149 978 1092 b 1193 1219 1118 1092 1183 1149 b 1083 1347 1203 1290 1154 1347 z m 1136 1219 b 1056 1146 1131 1179 1094 1146 b 996 1219 1017 1146 990 1179 b 1076 1293 1001 1260 1038 1293 b 1136 1219 1115 1293 1142 1260 z "},"Æ":{"ha":1931,"x_min":0,"x_max":0,"o":"m 1122 771 l 1122 772 l 1136 829 l 1150 888 b 1051 1057 1167 961 1124 1036 b 981 1067 1031 1063 1007 1067 b 513 618 835 1067 672 839 b 440 519 488 583 464 551 b 185 599 283 529 185 599 b 340 389 185 599 115 421 b 4 81 219 236 110 124 b 175 -65 4 81 14 -65 b 583 401 294 -65 444 160 b 825 425 653 411 732 421 l 724 1 l 939 1 l 1122 771 z m 849 526 b 651 521 797 525 726 522 b 954 972 782 756 896 972 l 922 829 l 849 526 z m 1856 393 b 1483 111 1856 393 1699 111 b 1554 494 1203 111 1263 494 l 1533 585 b 1647 950 1306 585 1442 950 b 1599 650 1776 950 1676 719 b 1683 621 1599 650 1614 621 b 1625 1071 1940 621 1972 1071 b 1360 560 1214 1071 1150 622 b 1394 -43 999 442 1018 -43 b 1907 363 1689 -43 1907 363 l 1856 393 z "},"Ç":{"ha":704,"x_min":0,"x_max":0,"o":"m 319 -49 b 497 -1 385 -46 444 -31 b 642 114 553 31 601 68 b 743 251 682 160 717 206 b 803 367 769 297 790 335 b 821 413 813 392 819 407 l 822 413 l 822 414 l 750 414 l 750 413 b 749 411 749 413 749 413 b 726 378 746 407 739 396 l 725 376 b 724 375 725 375 725 375 l 724 372 l 722 372 l 722 371 b 721 369 721 371 721 371 l 721 368 l 719 368 l 719 367 l 718 365 l 718 364 b 717 363 717 364 717 364 l 715 363 l 715 360 l 714 360 b 621 235 690 322 658 281 b 500 111 583 189 543 147 b 378 56 457 74 415 56 b 269 121 329 56 293 78 b 228 288 246 164 232 219 b 240 503 224 356 228 426 b 297 717 253 578 271 649 b 392 883 324 785 354 840 b 510 947 428 926 467 947 b 568 900 544 947 564 932 b 556 785 572 868 568 829 b 503 657 542 740 524 697 b 439 568 481 617 460 586 l 443 564 b 456 553 444 560 449 557 b 481 543 461 549 469 546 b 522 539 492 540 506 539 b 657 594 574 539 619 557 b 740 729 694 631 722 675 b 758 890 758 783 765 836 b 697 1025 751 943 732 988 b 540 1081 663 1063 610 1081 b 301 1010 449 1081 369 1057 b 133 831 233 963 178 903 b 33 599 89 757 56 681 b 0 372 11 517 0 442 b 15 232 0 328 6 281 b 64 94 25 183 40 138 b 157 -8 86 51 117 18 b 250 -44 183 -26 214 -39 l 247 -58 b 240 -90 244 -69 242 -81 b 235 -114 239 -100 236 -108 b 124 -164 194 -121 157 -137 b 128 -169 125 -165 126 -168 b 144 -201 135 -179 140 -190 b 200 -187 163 -192 181 -187 b 258 -212 231 -187 250 -196 b 260 -271 267 -231 267 -250 b 219 -329 251 -293 238 -312 b 158 -356 201 -347 181 -356 b 126 -343 143 -356 133 -351 b 115 -314 119 -336 117 -326 b 115 -278 114 -301 114 -290 b 121 -249 117 -267 118 -257 b 122 -242 121 -246 122 -244 b 124 -239 122 -240 122 -240 l 124 -237 l 114 -237 b 89 -242 107 -237 99 -239 b 60 -256 79 -244 69 -249 b 35 -282 50 -262 42 -271 b 24 -329 28 -294 24 -310 b 56 -399 24 -354 35 -378 b 153 -431 76 -419 108 -431 b 276 -387 199 -431 240 -417 b 357 -286 313 -358 339 -325 b 372 -179 375 -249 379 -212 b 301 -115 365 -147 342 -125 z "},"È":{"ha":836,"x_min":0,"x_max":0,"o":"m 485 110 b 556 492 204 110 264 492 l 533 583 b 649 947 307 583 442 947 b 600 647 776 947 678 718 b 683 618 600 647 615 618 b 626 1068 942 618 974 1068 b 361 557 215 1068 151 621 b 396 -46 0 439 19 -46 b 908 360 690 -46 908 360 l 857 392 b 485 110 857 392 700 110 z m 467 1313 b 622 1106 467 1313 622 1108 b 697 1106 622 1104 697 1106 l 635 1313 l 467 1313 z "},"É":{"ha":836,"x_min":0,"x_max":0,"o":"m 485 110 b 556 492 204 110 264 492 l 533 583 b 649 947 307 583 442 947 b 600 647 776 947 678 718 b 683 618 600 647 615 618 b 626 1068 942 618 974 1068 b 361 557 215 1068 151 621 b 396 -46 0 439 19 -46 b 908 360 690 -46 908 360 l 857 392 b 485 110 857 392 700 110 z m 588 1106 b 663 1106 588 1106 663 1104 b 818 1313 663 1108 818 1313 l 650 1313 l 588 1106 z "},"Ê":{"ha":836,"x_min":0,"x_max":0,"o":"m 485 110 b 556 492 204 110 264 492 l 533 583 b 649 947 307 583 442 947 b 600 647 776 947 678 718 b 683 618 600 647 615 618 b 626 1068 942 618 974 1068 b 361 557 215 1068 151 621 b 396 -46 0 439 19 -46 b 908 360 690 -46 908 360 l 857 392 b 485 110 857 392 700 110 z m 649 1311 l 492 1104 l 619 1104 l 692 1208 l 733 1104 l 849 1104 l 764 1311 l 649 1311 z "},"Ë":{"ha":836,"x_min":0,"x_max":0,"o":"m 485 110 b 556 492 204 110 264 492 l 533 583 b 649 947 307 583 442 947 b 600 647 776 947 678 718 b 683 618 600 647 615 618 b 626 1068 942 618 974 1068 b 361 557 215 1068 151 621 b 396 -46 0 439 19 -46 b 908 360 690 -46 908 360 l 857 392 b 485 110 857 392 700 110 z m 601 1324 b 497 1219 544 1324 497 1276 b 601 1115 497 1161 544 1115 b 706 1219 660 1115 706 1161 b 601 1324 706 1276 660 1324 z m 840 1324 b 736 1219 783 1324 736 1276 b 840 1115 736 1161 783 1115 b 944 1219 897 1115 944 1161 b 840 1324 944 1276 897 1324 z "},"Ì":{"ha":585,"x_min":0,"x_max":0,"o":"m 428 1068 b 0 681 167 1068 0 874 b 244 454 0 414 244 454 b 189 660 244 454 189 521 b 385 976 189 810 290 976 b 401 826 435 976 425 914 l 401 822 b 400 819 400 821 400 819 b 367 679 379 742 367 679 l 200 0 l 415 0 l 588 726 b 615 844 596 764 606 803 b 428 1068 646 974 533 1068 z m 390 1313 b 546 1106 390 1313 546 1108 b 621 1106 546 1104 621 1106 l 558 1313 l 390 1313 z "},"Í":{"ha":585,"x_min":0,"x_max":0,"o":"m 428 1068 b 0 681 167 1068 0 874 b 244 454 0 414 244 454 b 189 660 244 454 189 521 b 385 976 189 810 290 976 b 401 826 435 976 425 914 l 401 822 b 400 819 400 821 400 819 b 367 679 379 742 367 679 l 200 0 l 415 0 l 588 726 b 615 844 596 764 606 803 b 428 1068 646 974 533 1068 z m 435 1106 b 510 1106 435 1106 510 1104 b 665 1313 510 1108 665 1313 l 497 1313 l 435 1106 z "},"Î":{"ha":585,"x_min":0,"x_max":0,"o":"m 428 1068 b 0 681 167 1068 0 874 b 244 454 0 414 244 454 b 189 660 244 454 189 521 b 385 976 189 810 290 976 b 401 826 435 976 425 914 l 401 822 b 400 819 400 821 400 819 b 367 679 379 742 367 679 l 200 0 l 415 0 l 588 726 b 615 844 596 764 606 803 b 428 1068 646 974 533 1068 z m 472 1311 l 315 1104 l 443 1104 l 515 1208 l 557 1104 l 672 1104 l 588 1311 l 472 1311 z "},"Ï":{"ha":585,"x_min":0,"x_max":0,"o":"m 428 1068 b 0 681 167 1068 0 874 b 244 454 0 414 244 454 b 189 660 244 454 189 521 b 385 976 189 810 290 976 b 401 826 435 976 425 914 l 401 822 b 400 819 400 821 400 819 b 367 679 379 742 367 679 l 200 0 l 415 0 l 588 726 b 615 844 596 764 606 803 b 428 1068 646 974 533 1068 z m 379 1324 b 275 1219 322 1324 275 1276 b 379 1115 275 1161 322 1115 b 483 1219 438 1115 483 1161 b 379 1324 483 1276 438 1324 z m 618 1324 b 514 1219 561 1324 514 1276 b 618 1115 514 1161 561 1115 b 722 1219 675 1115 722 1161 b 618 1324 722 1276 675 1324 z "},"Ð":{"ha":1208,"x_min":0,"x_max":0,"o":"m 632 1071 b 0 546 335 1071 0 869 b 244 321 0 281 244 321 b 189 525 244 321 189 388 b 642 978 189 789 435 978 b 642 81 1153 978 922 81 b 560 289 540 81 546 206 l 594 432 l 683 432 l 707 531 l 618 531 l 700 881 l 492 881 l 406 531 l 311 531 l 288 432 l 382 432 l 276 1 l 492 1 l 499 31 b 713 -43 535 -3 603 -43 b 632 1071 1194 -43 1433 1071 z "},"Ñ":{"ha":1157,"x_min":0,"x_max":0,"o":"m 1204 1068 b 1024 860 1101 1068 1047 958 b 947 533 1000 761 947 533 l 894 306 b 786 657 863 414 825 538 b 471 1068 713 885 657 1068 l 469 1068 b 454 1068 465 1068 460 1068 b 0 681 164 1068 0 874 b 244 454 0 414 244 454 b 188 660 244 454 188 521 b 383 976 188 810 289 976 b 418 901 418 976 425 947 l 253 228 b 72 -118 178 -81 72 -118 b 210 -210 72 -118 108 -210 b 390 0 313 -210 367 -99 b 399 39 393 11 396 24 l 547 713 b 557 754 550 726 554 740 b 775 104 642 551 731 261 b 906 3 792 46 844 6 l 979 0 l 1174 706 b 1340 976 1247 942 1340 976 b 1204 1068 1340 976 1306 1068 z m 960 1232 b 833 1293 901 1232 889 1293 b 729 1232 779 1293 729 1232 l 717 1115 b 822 1175 717 1115 768 1175 b 947 1115 876 1175 889 1115 b 1053 1165 1007 1115 1053 1165 l 1065 1282 b 960 1232 1065 1282 1018 1232 z "},"Ò":{"ha":1167,"x_min":0,"x_max":0,"o":"m 753 1068 b 335 364 210 1068 0 364 b 793 975 335 667 572 975 b 643 40 1114 975 897 40 b 571 176 597 40 571 90 b 864 726 571 565 864 726 b 718 796 864 726 844 796 b 647 -53 390 796 222 -53 b 753 1068 1129 -53 1431 1068 z m 644 1313 b 800 1106 644 1313 800 1108 b 875 1106 800 1104 875 1106 l 813 1313 l 644 1313 z "},"Ó":{"ha":1167,"x_min":0,"x_max":0,"o":"m 753 1068 b 335 364 210 1068 0 364 b 793 975 335 667 572 975 b 643 40 1114 975 897 40 b 571 176 597 40 571 90 b 864 726 571 565 864 726 b 718 796 864 726 844 796 b 647 -53 390 796 222 -53 b 753 1068 1129 -53 1431 1068 z m 765 1106 b 840 1106 765 1106 840 1104 b 996 1313 840 1108 996 1313 l 828 1313 l 765 1106 z "},"Ô":{"ha":1167,"x_min":0,"x_max":0,"o":"m 753 1068 b 335 364 210 1068 0 364 b 793 975 335 667 572 975 b 643 40 1114 975 897 40 b 571 176 597 40 571 90 b 864 726 571 565 864 726 b 718 796 864 726 844 796 b 647 -53 390 796 222 -53 b 753 1068 1129 -53 1431 1068 z m 860 1311 l 703 1104 l 831 1104 l 903 1208 l 944 1104 l 1060 1104 l 975 1311 l 860 1311 z "},"Õ":{"ha":1167,"x_min":0,"x_max":0,"o":"m 753 1068 b 335 364 210 1068 0 364 b 793 975 335 667 572 975 b 643 40 1114 975 897 40 b 571 176 597 40 571 90 b 864 726 571 565 864 726 b 718 796 864 726 844 796 b 647 -53 390 796 222 -53 b 753 1068 1129 -53 1431 1068 z m 918 1232 b 792 1293 860 1232 847 1293 b 688 1232 738 1293 688 1232 l 675 1115 b 781 1175 675 1115 726 1175 b 906 1115 835 1175 847 1115 b 1011 1165 965 1115 1011 1165 l 1024 1282 b 918 1232 1024 1282 976 1232 z "},"Ö":{"ha":1167,"x_min":0,"x_max":0,"o":"m 753 1068 b 335 364 210 1068 0 364 b 793 975 335 667 572 975 b 643 40 1114 975 897 40 b 571 176 597 40 571 90 b 864 726 571 565 864 726 b 718 796 864 726 844 796 b 647 -53 390 796 222 -53 b 753 1068 1129 -53 1431 1068 z m 779 1324 b 675 1219 722 1324 675 1276 b 779 1115 675 1161 722 1115 b 883 1219 838 1115 883 1161 b 779 1324 883 1276 838 1324 z m 1018 1324 b 914 1219 961 1324 914 1276 b 1018 1115 914 1161 961 1115 b 1122 1219 1075 1115 1122 1161 b 1018 1324 1122 1276 1075 1324 z "},"×":{"ha":883,"x_min":0,"x_max":0,"o":"m 567 644 l 408 644 l 326 549 l 281 644 l 122 644 l 225 431 l 33 208 l 192 208 l 281 313 l 331 208 l 488 208 l 382 431 l 567 644 z "},"Ø":{"ha":1110,"x_min":0,"x_max":0,"o":"m 1088 1115 l 990 1115 l 896 982 b 581 1122 833 1067 731 1122 b 163 417 38 1122 -172 417 b 621 1028 163 721 400 1028 b 779 818 719 1028 767 940 l 401 288 b 692 779 428 635 692 779 b 546 849 692 779 672 849 b 274 110 292 849 133 339 l 201 7 l 297 7 l 326 49 b 475 0 365 18 414 0 b 938 906 821 0 1074 579 l 1088 1115 z m 471 93 b 406 160 439 93 417 117 l 779 682 b 471 93 757 415 621 93 z "},"Ù":{"ha":1135,"x_min":0,"x_max":0,"o":"m 1044 1063 b 1044 1069 1044 1067 1044 1069 b 504 111 1044 1069 729 111 b 486 428 426 111 456 286 b 533 644 518 571 533 644 b 596 913 554 721 578 814 b 454 1069 621 1042 558 1069 b 0 682 164 1069 0 875 b 244 456 0 415 244 456 b 188 661 244 456 188 522 b 383 978 188 811 289 978 b 413 879 424 978 425 939 l 397 814 b 367 688 382 754 371 704 l 353 633 b 276 329 339 579 304 444 b 450 -44 206 40 349 -44 b 889 429 633 -44 786 200 l 785 0 l 978 0 l 1213 1068 l 1046 1068 l 1044 1063 z m 631 1313 b 786 1106 631 1313 786 1108 b 861 1106 786 1104 861 1106 l 799 1313 l 631 1313 z "},"Ú":{"ha":1135,"x_min":0,"x_max":0,"o":"m 1044 1063 b 1044 1069 1044 1067 1044 1069 b 504 111 1044 1069 729 111 b 486 428 426 111 456 286 b 533 644 518 571 533 644 b 596 913 554 721 578 814 b 454 1069 621 1042 558 1069 b 0 682 164 1069 0 875 b 244 456 0 415 244 456 b 188 661 244 456 188 522 b 383 978 188 811 289 978 b 413 879 424 978 425 939 l 397 814 b 367 688 382 754 371 704 l 353 633 b 276 329 339 579 304 444 b 450 -44 206 40 349 -44 b 889 429 633 -44 786 200 l 785 0 l 978 0 l 1213 1068 l 1046 1068 l 1044 1063 z m 728 1106 b 803 1106 728 1106 803 1104 b 958 1313 803 1108 958 1313 l 790 1313 l 728 1106 z "},"Û":{"ha":1135,"x_min":0,"x_max":0,"o":"m 1044 1063 b 1044 1069 1044 1067 1044 1069 b 504 111 1044 1069 729 111 b 486 428 426 111 456 286 b 533 644 518 571 533 644 b 596 913 554 721 578 814 b 454 1069 621 1042 558 1069 b 0 682 164 1069 0 875 b 244 456 0 415 244 456 b 188 661 244 456 188 522 b 383 978 188 811 289 978 b 413 879 424 978 425 939 l 397 814 b 367 688 382 754 371 704 l 353 633 b 276 329 339 579 304 444 b 450 -44 206 40 349 -44 b 889 429 633 -44 786 200 l 785 0 l 978 0 l 1213 1068 l 1046 1068 l 1044 1063 z m 801 1311 l 644 1104 l 772 1104 l 844 1208 l 886 1104 l 1001 1104 l 917 1311 l 801 1311 z "},"Ü":{"ha":1135,"x_min":0,"x_max":0,"o":"m 1044 1063 b 1044 1069 1044 1067 1044 1069 b 504 111 1044 1069 729 111 b 486 428 426 111 456 286 b 533 644 518 571 533 644 b 596 913 554 721 578 814 b 454 1069 621 1042 558 1069 b 0 682 164 1069 0 875 b 244 456 0 415 244 456 b 188 661 244 456 188 522 b 383 978 188 811 289 978 b 413 879 424 978 425 939 l 397 814 b 367 688 382 754 371 704 l 353 633 b 276 329 339 579 304 444 b 450 -44 206 40 349 -44 b 889 429 633 -44 786 200 l 785 0 l 978 0 l 1213 1068 l 1046 1068 l 1044 1063 z m 718 1324 b 614 1219 661 1324 614 1276 b 718 1115 614 1161 661 1115 b 822 1219 776 1115 822 1161 b 718 1324 822 1276 776 1324 z m 957 1324 b 853 1219 900 1324 853 1276 b 957 1115 853 1161 900 1115 b 1061 1219 1014 1115 1061 1161 b 957 1324 1061 1276 1014 1324 z "},"Ý":{"ha":1168,"x_min":0,"x_max":0,"o":"m 1047 1068 l 1044 1063 b 1046 1069 1046 1067 1046 1069 b 506 111 1046 1069 731 111 b 488 428 426 111 456 286 b 535 644 518 571 535 644 b 597 913 556 721 578 814 b 456 1069 621 1042 560 1069 b 0 682 165 1069 0 875 b 244 456 0 415 244 456 b 189 661 244 456 189 522 b 385 978 189 811 290 978 b 414 879 425 978 426 939 l 399 814 b 368 688 382 754 371 704 l 354 633 b 278 329 340 579 306 444 b 451 -44 207 40 349 -44 b 836 317 604 -44 736 126 b 790 125 818 243 800 168 b 756 -42 781 81 768 22 b 414 -406 601 -90 414 -199 b 579 -576 414 -500 475 -576 b 975 0 793 -576 883 -364 b 1006 126 985 40 994 82 b 1006 128 1006 126 1006 126 l 1235 1068 l 1047 1068 z m 564 -515 b 507 -450 528 -515 507 -487 b 728 -168 507 -329 621 -232 b 564 -515 689 -343 636 -515 z m 769 1106 b 844 1106 769 1106 844 1104 b 1000 1313 844 1108 1000 1313 l 832 1313 l 769 1106 z "},"Þ":{"ha":1389,"x_min":0,"x_max":0,"o":""},"ß":{"ha":814,"x_min":0,"x_max":0,"o":"m 763 718 b 454 1064 763 925 608 1064 b 150 715 282 1064 199 892 l 142 679 b 139 669 140 676 139 674 l 46 292 b 33 238 46 292 40 269 l 8 138 b 256 -81 -14 51 40 -81 b 640 253 449 -81 640 26 b 542 419 640 335 597 389 b 763 718 661 458 763 543 z m 269 0 b 213 89 215 0 203 51 b 258 286 228 156 258 286 l 283 389 b 458 243 360 388 458 368 b 269 0 458 97 347 0 z m 296 444 l 346 657 b 346 657 346 657 346 657 l 367 740 b 475 929 393 849 419 929 b 563 757 522 929 563 860 b 296 444 563 533 397 465 z "},"à":{"ha":869,"x_min":0,"x_max":0,"o":"m 671 139 b 653 314 617 139 638 242 b 747 722 671 397 710 567 l 532 722 b 524 690 529 711 526 701 b 386 746 497 724 454 746 b -10 243 181 746 -10 469 b 172 -1 -10 108 47 -1 b 418 160 274 -1 357 74 b 538 -10 417 61 446 -10 b 960 371 763 -10 960 371 l 921 419 b 671 139 921 419 763 139 z m 275 153 b 431 629 150 153 247 629 b 499 582 467 629 488 611 b 461 418 485 524 472 468 b 275 153 461 418 399 153 z m 396 1007 b 551 800 396 1007 551 803 b 626 800 551 799 626 800 l 564 1007 l 396 1007 z "},"á":{"ha":869,"x_min":0,"x_max":0,"o":"m 671 139 b 653 314 617 139 638 242 b 747 722 671 397 710 567 l 532 722 b 524 690 529 711 526 701 b 386 746 497 724 454 746 b -10 243 181 746 -10 469 b 172 -1 -10 108 47 -1 b 418 160 274 -1 357 74 b 538 -10 417 61 446 -10 b 960 371 763 -10 960 371 l 921 419 b 671 139 921 419 763 139 z m 275 153 b 431 629 150 153 247 629 b 499 582 467 629 488 611 b 461 418 485 524 472 468 b 275 153 461 418 399 153 z m 474 800 b 549 800 474 800 549 799 b 704 1007 549 803 704 1007 l 536 1007 l 474 800 z "},"â":{"ha":869,"x_min":0,"x_max":0,"o":"m 671 139 b 653 314 617 139 638 242 b 747 722 671 397 710 567 l 532 722 b 524 690 529 711 526 701 b 386 746 497 724 454 746 b -10 243 181 746 -10 469 b 172 -1 -10 108 47 -1 b 418 160 274 -1 357 74 b 538 -10 417 61 446 -10 b 960 371 763 -10 960 371 l 921 419 b 671 139 921 419 763 139 z m 275 153 b 431 629 150 153 247 629 b 499 582 467 629 488 611 b 461 418 485 524 472 468 b 275 153 461 418 399 153 z m 507 1011 l 350 804 l 478 804 l 550 908 l 592 804 l 707 804 l 622 1011 l 507 1011 z "},"ã":{"ha":869,"x_min":0,"x_max":0,"o":"m 671 139 b 653 314 617 139 638 242 b 747 722 671 397 710 567 l 532 722 b 524 690 529 711 526 701 b 386 746 497 724 454 746 b -10 243 181 746 -10 469 b 172 -1 -10 108 47 -1 b 418 160 274 -1 357 74 b 538 -10 417 61 446 -10 b 960 371 763 -10 960 371 l 921 419 b 671 139 921 419 763 139 z m 275 153 b 431 629 150 153 247 629 b 499 582 467 629 488 611 b 461 418 485 524 472 468 b 275 153 461 418 399 153 z m 644 915 b 518 976 586 915 574 976 b 414 915 464 976 414 915 l 401 799 b 507 858 401 799 453 858 b 632 799 561 858 574 799 b 738 849 692 799 738 849 l 750 965 b 644 915 750 965 703 915 z "},"ä":{"ha":869,"x_min":0,"x_max":0,"o":"m 671 139 b 653 314 617 139 638 242 b 747 722 671 397 710 567 l 532 722 b 524 690 529 711 526 701 b 386 746 497 724 454 746 b -10 243 181 746 -10 469 b 172 -1 -10 108 47 -1 b 418 160 274 -1 357 74 b 538 -10 417 61 446 -10 b 960 371 763 -10 960 371 l 921 419 b 671 139 921 419 763 139 z m 275 153 b 431 629 150 153 247 629 b 499 582 467 629 488 611 b 461 418 485 524 472 468 b 275 153 461 418 399 153 z m 404 1008 b 300 904 347 1008 300 961 b 404 800 300 846 347 800 b 508 904 463 800 508 846 b 404 1008 508 961 463 1008 z m 643 1008 b 539 904 586 1008 539 961 b 643 800 539 846 586 800 b 747 904 700 800 747 846 b 643 1008 747 961 700 1008 z "},"å":{"ha":869,"x_min":0,"x_max":0,"o":"m 671 139 b 653 314 617 139 638 242 b 747 722 671 397 710 567 l 532 722 b 524 690 529 711 526 701 b 386 746 497 724 454 746 b -10 243 181 746 -10 469 b 172 -1 -10 108 47 -1 b 418 160 274 -1 357 74 b 538 -10 417 61 446 -10 b 960 371 763 -10 960 371 l 921 419 b 671 139 921 419 763 139 z m 275 153 b 431 629 150 153 247 629 b 499 582 467 629 488 611 b 461 418 485 524 472 468 b 275 153 461 418 399 153 z m 568 1056 b 424 928 499 1056 433 999 b 533 800 414 857 463 800 b 678 928 603 800 668 857 b 568 1056 688 999 639 1056 z m 621 928 b 540 854 615 888 579 854 b 481 928 501 854 475 888 b 561 1001 486 968 522 1001 b 621 928 600 1001 626 968 z "},"æ":{"ha":1096,"x_min":0,"x_max":0,"o":"m 1153 418 b 799 153 1153 418 986 153 b 660 319 694 153 657 228 b 729 292 676 304 699 292 b 851 744 986 292 1165 744 b 594 622 753 744 664 694 l 592 622 b 386 747 557 689 496 747 b -10 244 181 747 -10 471 b 172 0 -10 110 47 0 b 438 192 286 0 375 93 l 439 192 b 674 0 457 82 528 0 b 1190 374 964 0 1190 374 l 1153 418 z m 857 651 b 671 396 961 651 863 428 b 857 651 699 522 783 651 z m 275 154 b 429 631 149 154 246 631 b 499 583 467 631 488 611 b 460 419 483 519 471 467 b 275 154 460 419 399 154 z "},"ç":{"ha":651,"x_min":0,"x_max":0,"o":"m 265 0 b 393 38 310 6 353 17 b 536 131 444 63 493 93 b 649 242 579 168 617 204 b 721 335 679 278 703 308 b 744 371 733 354 742 367 b 746 372 744 371 746 371 l 708 417 b 707 415 708 415 707 415 b 681 376 704 411 696 397 b 604 285 663 350 636 319 b 490 193 571 250 533 219 b 351 151 447 165 400 151 b 243 203 300 151 264 168 b 218 328 222 238 214 279 b 254 475 222 376 233 426 b 328 600 274 524 299 565 b 414 650 357 633 385 650 b 447 626 432 650 443 642 b 450 569 451 610 453 590 b 432 511 446 549 440 529 b 407 478 424 493 415 482 l 407 476 b 408 475 407 476 408 476 l 411 472 b 421 457 413 468 417 463 b 439 443 425 451 431 447 b 468 436 446 439 456 436 b 538 468 496 436 519 447 b 575 544 556 489 568 514 b 571 635 581 574 579 604 b 518 713 561 665 544 692 b 408 743 492 733 456 743 b 231 689 343 743 285 725 b 92 550 176 653 129 607 b 8 371 54 493 26 433 b -6 192 -10 308 -14 249 b 61 53 1 135 24 89 b 196 0 93 22 138 4 b 194 -8 194 -3 194 -6 b 188 -40 192 -19 189 -31 b 182 -64 186 -50 183 -58 b 71 -114 142 -71 104 -87 b 75 -119 72 -115 74 -118 b 92 -151 82 -129 88 -140 b 147 -137 110 -142 128 -137 b 206 -162 178 -137 197 -146 b 207 -221 214 -181 214 -200 b 167 -279 199 -243 185 -262 b 106 -306 149 -297 128 -306 b 74 -293 90 -306 81 -301 b 63 -264 67 -286 64 -276 b 63 -228 61 -251 61 -240 b 68 -199 64 -217 65 -207 b 69 -192 68 -196 69 -194 b 71 -189 69 -190 69 -190 l 71 -187 l 61 -187 b 36 -192 54 -187 46 -189 b 7 -206 26 -194 17 -199 b -18 -232 -3 -212 -11 -221 b -29 -279 -25 -244 -29 -260 b 3 -349 -29 -304 -18 -328 b 100 -381 24 -369 56 -381 b 224 -337 146 -381 188 -367 b 304 -236 260 -308 286 -275 b 319 -129 322 -199 326 -162 b 249 -65 313 -97 289 -75 z "},"è":{"ha":647,"x_min":0,"x_max":0,"o":"m 707 417 b 354 151 707 417 542 151 b 215 318 249 151 213 226 b 285 290 231 303 253 290 b 406 743 540 290 721 743 b 228 -1 21 743 -210 -1 b 746 372 519 -1 746 372 l 707 417 z m 413 650 b 225 394 515 650 417 426 b 413 650 254 521 338 650 z m 272 1007 b 428 800 272 1007 428 803 b 503 800 428 799 503 800 l 440 1007 l 272 1007 z "},"é":{"ha":647,"x_min":0,"x_max":0,"o":"m 707 417 b 354 151 707 417 542 151 b 215 318 249 151 213 226 b 285 290 231 303 253 290 b 406 743 540 290 721 743 b 228 -1 21 743 -210 -1 b 746 372 519 -1 746 372 l 707 417 z m 413 650 b 225 394 515 650 417 426 b 413 650 254 521 338 650 z m 333 800 b 408 800 333 800 408 799 b 564 1007 408 803 564 1007 l 396 1007 l 333 800 z "},"ê":{"ha":647,"x_min":0,"x_max":0,"o":"m 707 417 b 354 151 707 417 542 151 b 215 318 249 151 213 226 b 285 290 231 303 253 290 b 406 743 540 290 721 743 b 228 -1 21 743 -210 -1 b 746 372 519 -1 746 372 l 707 417 z m 413 650 b 225 394 515 650 417 426 b 413 650 254 521 338 650 z m 390 1011 l 233 804 l 361 804 l 433 908 l 475 804 l 590 804 l 506 1011 l 390 1011 z "},"ë":{"ha":647,"x_min":0,"x_max":0,"o":"m 707 417 b 354 151 707 417 542 151 b 215 318 249 151 213 226 b 285 290 231 303 253 290 b 406 743 540 290 721 743 b 228 -1 21 743 -210 -1 b 746 372 519 -1 746 372 l 707 417 z m 413 650 b 225 394 515 650 417 426 b 413 650 254 521 338 650 z m 304 1008 b 200 904 247 1008 200 961 b 304 800 200 846 247 800 b 408 904 363 800 408 846 b 304 1008 408 961 363 1008 z m 543 1008 b 439 904 486 1008 439 961 b 543 800 439 846 486 800 b 647 904 600 800 647 846 b 543 1008 647 961 600 1008 z "},"ì":{"ha":438,"x_min":0,"x_max":0,"o":"m 515 358 l 478 407 b 231 129 478 407 322 129 b 213 303 176 129 197 231 b 310 725 231 388 274 571 l 94 725 b -3 303 60 575 17 396 b 97 -19 -39 133 -37 -19 b 515 358 321 -19 515 358 z m 56 1007 b 211 800 56 1007 211 803 b 286 800 211 799 286 800 l 224 1007 l 56 1007 z "},"í":{"ha":438,"x_min":0,"x_max":0,"o":"m 515 358 l 478 407 b 231 129 478 407 322 129 b 213 303 176 129 197 231 b 310 725 231 388 274 571 l 94 725 b -3 303 60 575 17 396 b 97 -19 -39 133 -37 -19 b 515 358 321 -19 515 358 z m 169 800 b 244 800 169 800 244 799 b 400 1007 244 803 400 1007 l 232 1007 l 169 800 z "},"î":{"ha":438,"x_min":0,"x_max":0,"o":"m 515 358 l 478 407 b 231 129 478 407 322 129 b 213 303 176 129 197 231 b 310 725 231 388 274 571 l 94 725 b -3 303 60 575 17 396 b 97 -19 -39 133 -37 -19 b 515 358 321 -19 515 358 z m 208 1011 l 51 804 l 179 804 l 251 908 l 293 804 l 408 804 l 324 1011 l 208 1011 z "},"ï":{"ha":438,"x_min":0,"x_max":0,"o":"m 515 358 l 478 407 b 231 129 478 407 322 129 b 213 303 176 129 197 231 b 310 725 231 388 274 571 l 94 725 b -3 303 60 575 17 396 b 97 -19 -39 133 -37 -19 b 515 358 321 -19 515 358 z m 117 1008 b 13 904 60 1008 13 961 b 117 800 13 846 60 800 b 221 904 175 800 221 846 b 117 1008 221 961 175 1008 z m 356 1008 b 251 904 299 1008 251 961 b 356 800 251 846 299 800 b 460 904 413 800 460 846 b 356 1008 460 961 413 1008 z "},"ð":{"ha":693,"x_min":0,"x_max":0,"o":"m 593 328 b 617 442 606 365 614 404 b 510 890 617 442 690 725 b 613 931 572 919 613 931 l 571 1001 b 435 943 524 992 478 969 b 236 1001 383 972 318 992 l 158 896 b 326 865 158 896 238 894 b 221 764 263 811 221 764 l 272 742 b 403 833 318 778 361 808 b 554 671 467 800 525 749 b 417 721 521 703 476 721 b 224 -1 -19 721 -168 -1 b 549 222 367 -1 481 97 b 799 485 686 289 799 485 l 779 547 b 593 328 779 547 689 383 z m 261 126 b 406 628 111 126 243 628 b 454 429 461 628 472 535 b 381 221 351 389 304 268 b 261 126 347 165 306 126 z "},"ñ":{"ha":843,"x_min":0,"x_max":0,"o":"m 639 129 b 604 176 625 129 604 135 b 707 622 604 243 707 547 b 565 746 707 674 675 746 b 563 746 565 746 564 746 b 210 310 474 746 322 515 l 308 725 l 94 725 l -78 1 l 138 1 b 485 565 167 126 360 408 b 394 118 460 442 394 244 b 506 -19 394 44 439 -19 b 925 358 731 -19 925 358 l 886 407 b 639 129 886 407 731 129 z m 521 921 b 394 982 463 921 450 982 b 290 921 340 982 290 921 l 278 804 b 383 864 278 804 329 864 b 508 804 438 864 450 804 b 614 854 568 804 614 854 l 626 971 b 521 921 626 971 579 921 z "},"ò":{"ha":685,"x_min":0,"x_max":0,"o":"m 797 489 l 778 550 b 592 331 778 550 688 386 b 415 724 653 522 611 724 b 222 1 -19 724 -168 1 b 547 226 365 1 479 101 b 797 489 686 292 797 489 z m 260 129 b 404 631 110 129 242 631 b 453 433 460 631 471 539 b 379 224 350 392 304 271 b 260 129 346 168 304 129 z m 290 1007 b 446 800 290 1007 446 803 b 521 800 446 799 521 800 l 458 1007 l 290 1007 z "},"ó":{"ha":685,"x_min":0,"x_max":0,"o":"m 797 489 l 778 550 b 592 331 778 550 688 386 b 415 724 653 522 611 724 b 222 1 -19 724 -168 1 b 547 226 365 1 479 101 b 797 489 686 292 797 489 z m 260 129 b 404 631 110 129 242 631 b 453 433 460 631 471 539 b 379 224 350 392 304 271 b 260 129 346 168 304 129 z m 374 800 b 449 800 374 800 449 799 b 604 1007 449 803 604 1007 l 436 1007 l 374 800 z "},"ô":{"ha":685,"x_min":0,"x_max":0,"o":"m 797 489 l 778 550 b 592 331 778 550 688 386 b 415 724 653 522 611 724 b 222 1 -19 724 -168 1 b 547 226 365 1 479 101 b 797 489 686 292 797 489 z m 260 129 b 404 631 110 129 242 631 b 453 433 460 631 471 539 b 379 224 350 392 304 271 b 260 129 346 168 304 129 z m 401 1011 l 244 804 l 372 804 l 444 908 l 486 804 l 601 804 l 517 1011 l 401 1011 z "},"õ":{"ha":685,"x_min":0,"x_max":0,"o":"m 797 489 l 778 550 b 592 331 778 550 688 386 b 415 724 653 522 611 724 b 222 1 -19 724 -168 1 b 547 226 365 1 479 101 b 797 489 686 292 797 489 z m 260 129 b 404 631 110 129 242 631 b 453 433 460 631 471 539 b 379 224 350 392 304 271 b 260 129 346 168 304 129 z m 515 915 b 389 976 457 915 444 976 b 285 915 335 976 285 915 l 272 799 b 378 858 272 799 324 858 b 503 799 432 858 444 799 b 608 849 563 799 608 849 l 621 965 b 515 915 621 965 574 915 z "},"ö":{"ha":685,"x_min":0,"x_max":0,"o":"m 797 489 l 778 550 b 592 331 778 550 688 386 b 415 724 653 522 611 724 b 222 1 -19 724 -168 1 b 547 226 365 1 479 101 b 797 489 686 292 797 489 z m 260 129 b 404 631 110 129 242 631 b 453 433 460 631 471 539 b 379 224 350 392 304 271 b 260 129 346 168 304 129 z m 304 1008 b 200 904 247 1008 200 961 b 304 800 200 846 247 800 b 408 904 363 800 408 846 b 304 1008 408 961 363 1008 z m 543 1008 b 439 904 486 1008 439 961 b 543 800 439 846 486 800 b 647 904 600 800 647 846 b 543 1008 647 961 600 1008 z "},"÷":{"ha":944,"x_min":0,"x_max":0,"o":"m 600 356 l 156 356 l 189 501 l 633 501 l 600 356 z m 542 644 b 436 539 542 586 494 539 b 331 644 378 539 331 586 b 436 751 331 703 378 751 b 542 644 494 751 542 703 z m 450 211 b 344 106 450 153 403 106 b 239 211 286 106 239 153 b 344 317 239 269 286 317 b 450 211 403 317 450 269 z "},"ø":{"ha":686,"x_min":0,"x_max":0,"o":"m 792 485 l 772 547 b 588 328 772 547 682 383 b 513 697 635 479 618 638 l 593 872 l 496 872 l 425 721 b 410 721 421 721 415 721 b 101 26 26 721 -135 158 l 40 -106 l 138 -106 l 188 0 b 218 -1 197 -1 207 -1 b 542 222 360 -1 474 97 b 792 485 681 289 792 485 z m 382 626 l 190 214 b 382 626 178 351 271 603 z m 254 126 b 247 128 251 126 249 126 l 451 567 b 447 429 458 531 457 482 b 374 221 344 389 299 268 b 254 126 340 165 300 126 z "},"ù":{"ha":886,"x_min":0,"x_max":0,"o":"m 694 149 b 676 322 640 149 660 250 b 768 725 694 406 732 572 l 553 725 b 532 633 546 694 539 664 b 235 149 532 633 410 149 b 217 322 182 149 201 250 b 310 725 235 406 274 572 l 94 725 b 1 322 58 576 21 414 b 101 -1 -35 153 -32 -1 b 449 253 261 -1 378 136 b 561 -1 428 113 446 -1 b 979 368 785 -1 979 368 l 940 418 b 694 149 940 418 785 149 z m 290 1007 b 446 800 290 1007 446 803 b 521 800 446 799 521 800 l 458 1007 l 290 1007 z "},"ú":{"ha":886,"x_min":0,"x_max":0,"o":"m 694 149 b 676 322 640 149 660 250 b 768 725 694 406 732 572 l 553 725 b 532 633 546 694 539 664 b 235 149 532 633 410 149 b 217 322 182 149 201 250 b 310 725 235 406 274 572 l 94 725 b 1 322 58 576 21 414 b 101 -1 -35 153 -32 -1 b 449 253 261 -1 378 136 b 561 -1 428 113 446 -1 b 979 368 785 -1 979 368 l 940 418 b 694 149 940 418 785 149 z m 374 800 b 449 800 374 800 449 799 b 604 1007 449 803 604 1007 l 436 1007 l 374 800 z "},"û":{"ha":886,"x_min":0,"x_max":0,"o":"m 694 149 b 676 322 640 149 660 250 b 768 725 694 406 732 572 l 553 725 b 532 633 546 694 539 664 b 235 149 532 633 410 149 b 217 322 182 149 201 250 b 310 725 235 406 274 572 l 94 725 b 1 322 58 576 21 414 b 101 -1 -35 153 -32 -1 b 449 253 261 -1 378 136 b 561 -1 428 113 446 -1 b 979 368 785 -1 979 368 l 940 418 b 694 149 940 418 785 149 z m 401 1011 l 244 804 l 372 804 l 444 908 l 486 804 l 601 804 l 517 1011 l 401 1011 z "},"ü":{"ha":886,"x_min":0,"x_max":0,"o":"m 694 149 b 676 322 640 149 660 250 b 768 725 694 406 732 572 l 553 725 b 532 633 546 694 539 664 b 235 149 532 633 410 149 b 217 322 182 149 201 250 b 310 725 235 406 274 572 l 94 725 b 1 322 58 576 21 414 b 101 -1 -35 153 -32 -1 b 449 253 261 -1 378 136 b 561 -1 428 113 446 -1 b 979 368 785 -1 979 368 l 940 418 b 694 149 940 418 785 149 z m 304 1008 b 200 904 247 1008 200 961 b 304 800 200 846 247 800 b 408 904 363 800 408 846 b 304 1008 408 961 363 1008 z m 543 1008 b 439 904 486 1008 439 961 b 543 800 439 846 486 800 b 647 904 600 800 647 846 b 543 1008 647 961 600 1008 z "},"ý":{"ha":799,"x_min":0,"x_max":0,"o":"m 564 647 b 269 171 546 581 431 171 b 251 346 217 171 236 274 b 339 725 269 425 304 579 l 124 725 b 36 346 90 583 54 432 b 136 22 0 175 3 22 b 472 258 289 22 401 146 b 442 125 463 217 451 172 b 410 -17 432 88 422 38 b 31 -403 243 -67 31 -181 b 206 -583 31 -503 94 -583 b 657 126 454 -583 553 -314 b 799 725 747 508 799 725 l 583 725 b 564 647 583 725 576 697 z m 189 -518 b 129 -450 151 -518 129 -490 b 379 -143 129 -318 261 -212 b 189 -518 332 -329 268 -518 z m 374 800 b 449 800 374 800 449 799 b 604 1007 449 803 604 1007 l 436 1007 l 374 800 z "},"þ":{"ha":1389,"x_min":0,"x_max":0,"o":""},"ÿ":{"ha":799,"x_min":0,"x_max":0,"o":"m 564 647 b 269 171 546 581 431 171 b 251 346 217 171 236 274 b 339 725 269 425 304 579 l 124 725 b 36 346 90 583 54 432 b 136 22 0 175 3 22 b 472 258 289 22 401 146 b 442 125 463 217 451 172 b 410 -17 432 88 422 38 b 31 -403 243 -67 31 -181 b 206 -583 31 -503 94 -583 b 657 126 454 -583 553 -314 b 799 725 747 508 799 725 l 583 725 b 564 647 583 725 576 697 z m 189 -518 b 129 -450 151 -518 129 -490 b 379 -143 129 -318 261 -212 b 189 -518 332 -329 268 -518 z m 368 1008 b 264 904 311 1008 264 961 b 368 800 264 846 311 800 b 472 904 426 800 472 846 b 368 1008 472 961 426 1008 z m 607 1008 b 503 904 550 1008 503 961 b 607 800 503 846 550 800 b 711 904 664 800 711 846 b 607 1008 711 961 664 1008 z "},"ı":{"ha":451,"x_min":0,"x_max":0,"o":"m 258 197 l 389 815 l 236 815 l 106 197 l 258 197 z "},"ˆ":{"ha":540,"x_min":0,"x_max":0,"o":"m 178 1036 l 21 829 l 147 829 l 219 932 l 263 829 l 378 829 l 293 1036 l 178 1036 z "},"ˇ":{"ha":561,"x_min":0,"x_max":0,"o":"m 179 933 l 136 1036 l 21 1036 l 106 829 l 221 829 l 378 1036 l 251 1036 l 179 933 z "},"ˉ":{"ha":474,"x_min":0,"x_max":0,"o":"m 21 919 l 304 919 l 340 1036 l 57 1036 l 21 919 z "},"˘":{"ha":503,"x_min":0,"x_max":0,"o":"m 175 967 b 117 1036 117 967 117 1036 l 21 1036 b 164 894 21 1036 28 894 b 329 1036 314 894 329 1036 l 238 1036 b 175 967 238 1036 231 967 z "},"˙":{"ha":433,"x_min":0,"x_max":0,"o":"m 143 1088 b 21 965 76 1088 21 1033 b 143 843 21 899 76 843 b 265 965 210 843 265 899 b 143 1088 265 1033 210 1088 z "},"˚":{"ha":419,"x_min":0,"x_max":0,"o":"m 176 1106 b 31 978 106 1106 40 1049 b 140 851 21 908 69 851 b 286 978 211 851 276 908 b 176 1106 296 1049 247 1106 z m 229 978 b 149 906 224 938 188 906 b 88 978 110 906 82 938 b 168 1051 93 1019 129 1051 b 229 978 207 1051 235 1019 z "},"˛":{"ha":364,"x_min":0,"x_max":0,"o":"m 21 97 b 161 -42 21 -53 161 -42 l 161 50 b 92 113 161 50 92 57 b 161 222 92 171 161 222 l 161 267 b 21 97 161 267 21 233 z "},"˜":{"ha":522,"x_min":0,"x_max":0,"o":"m 36 1001 b 142 1063 36 1001 88 1063 b 267 1001 196 1063 208 1001 b 374 1051 326 1001 374 1051 l 361 935 b 256 885 361 935 314 885 b 129 944 196 885 183 944 b 24 885 75 944 24 885 l 36 1001 z "},"˝":{"ha":626,"x_min":0,"x_max":0,"o":"m 104 1111 b 22 874 104 1111 22 875 b 96 874 21 871 96 874 l 272 1111 l 104 1111 z m 218 874 b 293 874 218 871 293 874 l 469 1111 l 300 1111 b 218 874 300 1111 218 875 z "},"–":{"ha":707,"x_min":0,"x_max":0,"o":"m 131 346 l 503 346 l 536 490 l 164 490 l 131 346 z "},"—":{"ha":924,"x_min":0,"x_max":0,"o":"m 58 346 l 718 346 l 751 490 l 92 490 l 58 346 z "},"‘":{"ha":503,"x_min":0,"x_max":0,"o":"m 0 951 b 0 949 0 950 0 950 b 0 947 0 949 0 947 b 0 946 0 947 0 947 b 107 842 1 888 49 842 b 214 949 167 842 214 889 b 165 1038 214 986 194 1018 b 263 1188 199 1122 263 1188 l 146 1188 b 0 954 146 1188 6 1097 b 0 954 0 954 0 954 b 0 951 0 953 0 953 z "},"’":{"ha":503,"x_min":0,"x_max":0,"o":"m 263 1078 b 263 1081 263 1079 263 1081 b 263 1082 263 1082 263 1082 b 263 1083 263 1082 263 1083 b 156 1188 261 1142 214 1188 b 49 1081 97 1188 49 1140 b 97 992 49 1043 68 1011 b 0 842 64 907 0 842 l 118 842 b 263 1075 118 842 258 932 b 263 1076 263 1075 263 1075 b 263 1078 263 1076 263 1076 z "},"‚":{"ha":503,"x_min":0,"x_max":0,"o":"m 263 79 b 263 82 263 81 263 82 b 263 83 263 83 263 83 b 263 85 263 83 263 85 b 156 189 261 143 214 189 b 49 82 97 189 49 142 b 97 -7 49 44 68 13 b 0 -157 64 -92 0 -157 l 118 -157 b 263 76 118 -157 258 -67 b 263 78 263 76 263 76 b 263 79 263 78 263 78 z "},"“":{"ha":503,"x_min":0,"x_max":0,"o":"m 240 951 b 240 949 240 950 240 950 b 240 947 240 949 240 947 b 240 946 240 947 240 947 b 347 842 242 888 289 842 b 454 949 407 842 454 889 b 406 1038 454 986 435 1018 b 503 1188 439 1122 503 1188 l 386 1188 b 240 954 386 1188 246 1097 b 240 954 240 954 240 954 b 240 951 240 953 240 953 z m 0 951 b 0 949 0 950 0 950 b 0 947 0 949 0 947 b 0 946 0 947 0 947 b 107 842 1 888 49 842 b 214 949 167 842 214 889 b 165 1038 214 986 194 1018 b 263 1188 199 1122 263 1188 l 146 1188 b 0 954 146 1188 6 1097 b 0 954 0 954 0 954 b 0 951 0 953 0 953 z "},"”":{"ha":503,"x_min":0,"x_max":0,"o":"m 263 1078 b 263 1081 263 1079 263 1081 b 263 1082 263 1082 263 1082 b 263 1083 263 1082 263 1083 b 156 1188 261 1142 214 1188 b 49 1081 97 1188 49 1140 b 97 992 49 1043 68 1011 b 0 842 64 907 0 842 l 118 842 b 263 1075 118 842 258 932 b 263 1076 263 1075 263 1075 b 263 1078 263 1076 263 1076 z m 503 1078 b 503 1081 503 1079 503 1081 b 503 1082 503 1082 503 1082 b 503 1083 503 1082 503 1083 b 396 1188 501 1142 454 1188 b 289 1081 338 1188 289 1140 b 338 992 289 1043 308 1011 b 240 842 304 907 240 842 l 358 842 b 503 1075 358 842 499 932 b 503 1076 503 1075 503 1075 b 503 1078 503 1076 503 1076 z "},"„":{"ha":503,"x_min":0,"x_max":0,"o":"m 263 79 b 263 82 263 81 263 82 b 263 83 263 83 263 83 b 263 85 263 83 263 85 b 156 189 261 143 214 189 b 49 82 97 189 49 142 b 97 -7 49 44 68 13 b 0 -157 64 -92 0 -157 l 118 -157 b 263 76 118 -157 258 -67 b 263 78 263 76 263 76 b 263 79 263 78 263 78 z m 503 79 b 503 82 503 81 503 82 b 503 83 503 83 503 83 b 503 85 503 83 503 85 b 396 189 501 143 454 189 b 289 82 338 189 289 142 b 338 -7 289 44 308 13 b 240 -157 304 -92 240 -157 l 358 -157 b 503 76 358 -157 499 -67 b 503 78 503 76 503 76 b 503 79 503 78 503 78 z "},"†":{"ha":763,"x_min":0,"x_max":0,"o":"m 415 1111 l 264 1111 l 224 921 l 54 921 l 21 775 l 193 775 l 29 -3 l 181 -3 l 344 775 l 531 775 l 564 921 l 375 921 l 415 1111 z "},"‡":{"ha":893,"x_min":0,"x_max":0,"o":"m 526 1111 l 374 1111 l 333 921 l 164 921 l 131 775 l 303 775 l 224 401 l 54 401 l 21 256 l 193 256 l 139 -3 l 292 -3 l 346 256 l 531 256 l 564 401 l 376 401 l 456 775 l 640 775 l 675 921 l 486 921 l 526 1111 z "},"•":{"ha":382,"x_min":0,"x_max":0,"o":"m 143 622 b 21 501 76 622 21 568 b 143 379 21 433 76 379 b 265 501 211 379 265 433 b 143 622 265 568 211 622 z "},"…":{"ha":1131,"x_min":0,"x_max":0,"o":"m 143 235 b 21 114 75 235 21 181 b 143 -8 21 46 75 -8 b 264 114 210 -8 264 46 b 143 235 264 181 210 235 z m 488 235 b 365 114 419 235 365 181 b 488 -8 365 46 419 -8 b 608 114 554 -8 608 46 b 488 235 608 181 554 235 z m 832 235 b 710 114 764 235 710 181 b 832 -8 710 46 764 -8 b 953 114 899 -8 953 46 b 832 235 953 181 899 235 z "},"‹":{"ha":486,"x_min":0,"x_max":0,"o":"m 261 728 l 289 846 l 26 631 l 0 513 l 165 279 l 193 397 l 69 571 l 261 728 z "},"›":{"ha":486,"x_min":0,"x_max":0,"o":"m 26 397 l 0 279 l 261 494 l 289 613 l 124 846 l 96 728 l 219 554 l 26 397 z "},"⁄":{"ha":989,"x_min":0,"x_max":0,"o":"m 174 0 l 21 0 l 693 1114 l 846 1114 l 174 0 z "},"∕":{"ha":989,"x_min":0,"x_max":0,"o":"m 174 0 l 21 0 l 693 1114 l 846 1114 l 174 0 z "},"₣":{"ha":1389,"x_min":0,"x_max":0,"o":""},"₤":{"ha":864,"x_min":0,"x_max":0,"o":"m 142 708 b 172 508 139 632 175 611 b 172 500 172 506 172 503 l 50 500 l 38 456 l 160 456 b 135 406 153 439 144 422 l 24 406 l 11 361 l 104 361 b 0 243 56 296 0 243 l 21 169 b 146 181 21 169 89 181 b 376 132 279 181 286 132 b 515 299 503 132 515 299 b 399 256 515 299 482 256 b 186 307 317 256 256 307 b 150 304 174 307 163 306 b 233 361 178 319 207 338 l 340 361 l 353 406 l 275 406 b 300 456 285 421 294 438 l 367 456 l 379 500 l 311 500 b 313 515 311 504 313 510 b 288 743 314 574 285 642 b 503 793 292 910 507 940 b 400 651 500 692 400 651 b 482 604 400 651 424 604 b 614 779 544 604 610 668 b 142 708 621 1043 150 1001 z "},"₧":{"ha":1389,"x_min":0,"x_max":0,"o":""},"€":{"ha":1389,"x_min":0,"x_max":0,"o":""},"№":{"ha":1389,"x_min":0,"x_max":0,"o":""},"™":{"ha":1389,"x_min":0,"x_max":0,"o":""},"∂":{"ha":1389,"x_min":0,"x_max":0,"o":""},"∆":{"ha":1389,"x_min":0,"x_max":0,"o":""},"∏":{"ha":1389,"x_min":0,"x_max":0,"o":""},"∑":{"ha":1389,"x_min":0,"x_max":0,"o":""},"−":{"ha":1389,"x_min":0,"x_max":0,"o":""},"√":{"ha":1389,"x_min":0,"x_max":0,"o":""},"∞":{"ha":1389,"x_min":0,"x_max":0,"o":""},"∫":{"ha":1389,"x_min":0,"x_max":0,"o":""},"≈":{"ha":760,"x_min":0,"x_max":0,"o":"m 75 532 b 211 599 75 532 142 599 b 374 532 282 599 299 532 b 511 586 450 532 511 586 l 481 449 b 343 393 481 449 419 393 b 181 460 267 393 251 460 b 44 393 110 460 44 393 l 75 532 z m 31 299 b 167 364 31 299 97 364 b 331 299 238 364 254 299 b 467 353 406 299 467 353 l 436 215 b 299 160 436 215 375 160 b 136 226 224 160 207 226 b 0 160 65 226 0 160 l 31 299 z "},"≤":{"ha":756,"x_min":0,"x_max":0,"o":"m 0 108 l 393 108 l 419 217 l 26 217 l 0 108 z m 96 432 l 426 251 l 457 382 l 274 482 l 497 546 l 528 678 l 126 564 l 96 432 z "},"≥":{"ha":714,"x_min":0,"x_max":0,"o":"m 0 108 l 393 108 l 419 217 l 26 217 l 0 108 z m 139 678 l 110 546 l 292 446 l 68 382 l 38 251 l 439 365 l 469 497 l 139 678 z "},"":{"ha":1340,"x_min":0,"x_max":0,"o":"m 1132 128 b 1114 301 1079 128 1099 229 b 1214 724 1135 399 1181 582 l 1063 724 l 999 724 b 857 565 999 724 929 586 b 806 768 897 675 903 768 b 735 490 661 768 589 522 b 590 331 700 436 646 364 b 414 722 651 521 608 722 b 221 0 -22 722 -171 0 b 546 224 364 0 478 99 b 822 492 676 285 799 457 b 960 565 879 501 924 529 b 899 301 936 467 913 369 b 999 -22 863 131 865 -22 b 1418 356 1224 -22 1418 356 l 1379 406 b 1132 128 1379 406 1224 128 z m 258 128 b 403 629 108 128 240 629 b 451 431 458 629 469 536 b 378 222 349 390 301 269 b 258 128 344 167 303 128 z "},"":{"ha":1197,"x_min":0,"x_max":0,"o":"m 1118 238 b 919 547 1104 396 919 463 b 988 618 919 599 958 618 b 1107 499 1092 618 1107 499 b 996 729 1197 499 1272 729 b 757 564 865 729 783 649 b 588 332 744 535 671 388 b 410 722 647 522 604 722 b 218 0 -25 722 -174 0 b 543 225 360 0 475 100 b 757 439 635 269 715 375 b 894 161 789 328 894 275 b 885 121 894 142 890 128 b 879 121 882 121 881 121 b 749 193 807 121 808 193 b 808 -26 592 193 585 -26 b 1086 111 958 -26 1044 40 b 1297 390 1215 217 1297 390 l 1249 428 b 1118 238 1206 344 1161 283 z m 256 128 b 399 629 104 128 236 629 b 447 431 456 629 467 536 b 374 222 344 390 299 269 b 256 128 340 167 300 128 z "},"":{"ha":1451,"x_min":0,"x_max":0,"o":"m 1238 146 b 1076 332 1175 146 1119 229 b 1328 647 1203 458 1328 581 b 1211 743 1328 754 1211 743 b 1036 444 1211 636 1132 538 b 967 722 992 585 967 722 l 772 722 b 629 371 749 506 633 375 b 586 332 615 356 601 343 b 408 722 646 522 603 722 b 217 0 -26 722 -175 0 b 542 226 358 0 474 100 b 697 361 599 256 653 308 b 813 529 722 388 775 449 b 881 300 831 458 853 378 b 711 60 788 215 711 135 b 817 -22 711 -35 817 -22 b 932 178 817 31 865 101 b 1121 -4 983 74 1046 -4 b 1539 365 1346 -4 1539 365 l 1501 415 b 1238 146 1501 415 1332 146 z m 253 128 b 397 629 103 128 235 629 b 446 431 453 629 464 536 b 372 222 343 390 297 269 b 253 128 339 167 297 128 z "},"":{"ha":1333,"x_min":0,"x_max":0,"o":"m 1115 143 b 1033 149 1085 143 1058 144 b 1251 722 1174 315 1251 581 b 992 704 1251 722 1174 704 b 751 722 885 704 751 722 b 731 581 751 674 743 625 b 592 332 731 581 679 396 b 413 722 650 522 608 722 b 221 0 -22 722 -171 0 b 542 218 361 0 474 96 b 697 350 607 243 658 296 b 697 353 697 350 697 351 b 786 533 758 439 786 533 b 796 561 789 542 793 551 b 967 543 828 554 888 543 b 1039 547 993 543 1017 544 b 868 193 1015 378 939 264 b 757 211 835 204 800 211 b 756 -4 632 211 558 -4 b 885 26 801 -4 846 7 b 1061 -4 940 10 1001 -4 b 1421 365 1231 -4 1421 365 l 1382 415 b 1115 143 1382 415 1208 143 z m 258 128 b 401 629 108 128 240 629 b 451 431 458 629 469 536 b 376 222 347 390 301 269 b 258 128 344 167 303 128 z "},"":{"ha":1386,"x_min":0,"x_max":0,"o":"m 1179 128 b 1161 301 1125 128 1144 229 b 1260 724 1182 399 1226 582 l 1108 724 l 1044 724 b 904 565 1044 724 976 586 b 853 768 943 675 950 768 b 779 490 708 768 638 525 b 657 344 747 442 703 382 b 483 744 711 540 661 744 b 289 656 406 744 342 707 b 304 722 294 682 300 704 l 89 722 b -157 -335 36 494 -157 -335 l 57 -335 b 146 42 57 -335 97 -165 b 265 -1 172 14 211 -1 b 614 235 428 -1 546 103 b 861 490 738 306 844 464 b 1007 565 922 499 968 526 b 946 301 983 467 960 369 b 1046 -22 910 131 911 -22 b 1464 356 1269 -22 1464 356 l 1426 406 b 1179 128 1426 406 1269 128 z m 257 94 b 213 328 194 94 186 207 b 219 360 215 339 217 349 b 406 611 254 488 324 611 b 465 415 471 611 485 521 b 407 233 392 369 360 281 b 257 94 367 154 314 94 z "},"":{"ha":1265,"x_min":0,"x_max":0,"o":"m 1364 390 l 1315 428 b 1185 238 1272 344 1229 283 b 986 547 1171 396 986 463 b 1054 618 986 599 1025 618 b 1174 499 1158 618 1174 499 b 1063 729 1264 499 1339 729 b 826 569 935 729 854 653 b 657 344 826 569 746 417 b 483 744 711 540 661 744 b 289 656 406 744 342 707 b 304 722 294 682 300 704 l 89 722 b -157 -335 36 494 -157 -335 l 57 -335 b 146 42 57 -335 97 -165 b 265 -1 172 14 211 -1 b 614 235 428 -1 546 103 b 822 444 707 288 785 390 b 961 161 853 331 961 276 b 951 121 961 142 957 128 b 946 121 949 121 947 121 b 815 193 874 121 875 193 b 875 -26 658 193 651 -26 b 1154 111 1025 -26 1111 40 b 1364 390 1282 217 1364 390 z m 257 94 b 213 328 194 94 186 207 b 219 360 215 339 217 349 b 406 611 254 488 324 611 b 467 415 471 611 485 521 b 407 233 392 369 360 281 b 257 94 367 154 314 94 z "}}}
